<!DOCTYPE svg PUBLIC "-//W3C//DTD SVG 20010904//EN" "http://www.w3.org/TR/2001/REC-SVG-20010904/DTD/svg10.dtd">
<svg version="1.0" xmlns="http://www.w3.org/2000/svg" width="400px" height="400px" viewBox="0 0 4000 4000" preserveAspectRatio="xMidYMid meet">
<g id="layer101" fill="#190e5a" stroke="none">
<path d="M1600 3724 c-103 -58 -140 -125 -140 -250 l0 -81 -177 -5 c-135 -4 -187 -2 -217 8 -33 12 -173 97 -186 114 -13 17 -99 59 -130 65 -46 8 -107 -16 -146 -58 -17 -18 -47 -67 -67 -109 -21 -42 -62 -105 -92 -140 -53 -61 -95 -144 -95 -190 0 -12 -7 -29 -16 -39 -20 -22 -11 -87 12 -96 7 -3 14 -15 14 -28 0 -25 29 -55 54 -55 10 0 24 -7 33 -15 13 -14 9 -31 -40 -163 -115 -307 -193 -581 -183 -637 10 -52 27 -60 94 -46 124 26 523 149 816 251 127 45 151 51 171 40 21 -11 142 -187 134 -194 -2 -2 -26 0 -54 4 -125 20 -414 -13 -499 -57 -41 -21 -144 -105 -236 -190 -42 -39 -92 -78 -112 -86 -40 -17 -65 -48 -74 -94 -5 -25 0 -37 26 -67 34 -39 56 -43 110 -24 31 10 35 9 54 -14 35 -43 98 -62 133 -40 17 11 33 58 33 100 0 49 20 76 83 112 48 28 60 30 151 30 90 0 104 -3 162 -31 64 -32 84 -53 59 -63 -19 -7 -51 -72 -66 -132 -11 -45 -106 -263 -119 -274 -13 -10 -60 -167 -80 -262 -44 -213 -18 -266 167 -336 27 -10 71 -34 98 -53 58 -41 163 -89 193 -89 12 0 24 -4 27 -10 3 -5 14 -10 24 -10 10 0 31 -12 47 -27 65 -60 268 -132 434 -155 65 -8 121 -9 217 -1 146 13 208 31 363 105 128 61 208 84 337 98 54 6 116 16 138 21 60 15 174 59 188 73 6 7 36 25 65 41 154 84 165 159 49 332 -87 131 -133 226 -147 304 -25 143 -102 328 -146 348 -42 19 -112 25 -128 11 -13 -10 -14 -7 -6 22 6 18 39 164 75 324 36 160 84 353 107 430 37 126 41 149 40 244 -1 93 -14 180 -37 232 -10 24 45 32 167 24 133 -8 176 -19 286 -71 51 -24 99 -42 106 -39 8 3 20 18 26 34 11 26 10 38 -6 103 -1 4 -2 11 -3 17 -3 21 -67 83 -110 104 -25 13 -104 38 -175 56 -123 31 -136 32 -268 28 l-139 -5 -47 65 c-26 35 -58 77 -72 92 -40 44 -131 107 -180 125 -119 44 -191 63 -260 70 -41 3 -119 20 -174 36 -54 16 -108 29 -119 29 -12 0 -97 38 -189 85 -165 84 -168 85 -240 85 -60 0 -81 -5 -118 -26z"/>
</g>
<g id="layer102" fill="#4a3f70" stroke="none">
<path d="M1750 3746 c0 -4 28 -14 105 -41 11 -3 2 5 -20 19 -34 22 -85 35 -85 22z"/>
<path d="M1625 3715 c-96 -52 -154 -155 -140 -253 3 -28 0 -79 -10 -127 -20 -106 -19 -125 10 -220 23 -75 49 -116 82 -126 7 -2 1 -9 -13 -16 -19 -9 -24 -9 -22 0 2 7 -7 26 -18 42 -50 72 -78 210 -60 294 l8 33 -33 -7 c-19 -4 -97 -26 -174 -50 -77 -24 -189 -53 -250 -65 -134 -27 -356 -92 -389 -113 -30 -20 -50 -58 -91 -177 -18 -52 -61 -171 -95 -265 -151 -416 -207 -635 -166 -651 7 -3 35 2 62 10 27 8 99 29 159 46 131 38 373 116 615 200 96 33 218 69 270 80 174 38 289 80 355 129 36 28 68 62 79 85 18 38 61 193 91 331 8 39 18 81 21 95 6 24 4 23 -32 -11 -22 -20 -57 -41 -79 -47 -22 -6 -51 -14 -65 -17 -21 -6 -20 -4 8 14 56 36 38 58 -33 40 -56 -14 -65 -26 -34 -51 16 -13 17 -16 5 -10 -11 5 -38 8 -60 6 -38 -4 -39 -3 -13 7 24 9 31 19 29 40 -1 4 29 14 66 23 87 21 140 59 165 116 28 64 35 213 13 308 -9 39 -16 91 -16 115 0 54 -16 105 -44 136 l-21 24 27 -17 c35 -23 58 -83 58 -152 0 -31 7 -84 16 -118 28 -105 -2 -338 -45 -353 -29 -10 -80 -65 -74 -80 8 -20 48 -9 92 26 20 16 43 26 51 23 8 -3 12 -1 8 3 -4 4 5 24 20 44 31 40 62 104 62 127 0 8 6 17 13 20 16 6 141 -50 184 -82 19 -14 45 -24 65 -24 65 0 249 -102 383 -213 70 -57 180 -178 202 -222 18 -35 20 -38 -92 88 -94 105 -235 214 -362 280 l-92 47 -25 -25 c-34 -34 -98 -35 -120 -3 l-16 22 0 -30 c0 -42 -25 -74 -59 -74 -15 0 -32 5 -38 11 -22 22 -41 3 -36 -36 5 -38 -16 -75 -44 -75 -31 0 -24 -31 17 -74 42 -44 208 -304 282 -443 38 -71 82 -183 74 -190 -2 -2 -18 32 -36 77 -38 93 -255 460 -300 506 l-30 32 -59 -30 -59 -30 -27 -86 c-24 -77 -34 -93 -81 -140 -30 -29 -54 -51 -54 -47 0 3 -11 -1 -24 -10 -31 -21 -246 -92 -301 -101 -49 -7 -64 -19 -46 -37 6 -6 11 -16 11 -22 -1 -5 -12 4 -25 20 -19 22 -25 26 -25 13 0 -16 36 -45 51 -40 4 0 35 -41 69 -93 68 -103 80 -114 159 -140 30 -10 97 -35 149 -56 63 -26 100 -36 111 -30 24 12 149 20 206 13 41 -6 28 -8 -70 -12 -157 -7 -160 -20 -15 -72 204 -74 272 -103 306 -134 58 -54 38 -55 -52 -4 -47 28 -120 62 -162 76 -42 14 -96 37 -120 50 -143 78 -462 194 -533 194 -10 0 -19 3 -19 8 0 13 -256 4 -347 -13 -48 -9 -115 -29 -148 -44 -58 -28 -199 -145 -245 -204 -12 -15 -48 -41 -81 -57 -65 -33 -80 -60 -59 -109 16 -38 49 -53 81 -35 36 20 45 17 87 -20 71 -65 121 -55 127 25 5 68 23 102 74 136 69 48 102 56 200 51 67 -4 100 -12 151 -35 65 -30 180 -124 180 -148 0 -7 14 -29 30 -50 17 -21 30 -45 30 -55 0 -31 -60 -139 -82 -146 -31 -9 -63 26 -54 61 7 26 8 26 20 9 12 -15 16 -16 30 -5 9 7 16 21 16 31 0 22 -25 44 -40 35 -15 -9 -12 18 6 43 17 24 43 29 63 10 7 -7 -1 8 -18 33 -37 57 -60 78 -62 58 -1 -8 -1 -20 1 -28 2 -17 -42 -101 -53 -101 -5 0 1 15 12 34 12 18 21 50 21 70 0 29 -4 36 -20 36 -25 0 -44 -30 -65 -105 -10 -33 -46 -123 -82 -200 -35 -77 -68 -149 -73 -160 -10 -23 -56 -230 -65 -290 -7 -53 7 -99 42 -129 28 -25 42 -32 153 -85 36 -17 90 -47 120 -66 60 -38 136 -65 184 -65 23 0 34 -6 41 -22 22 -50 239 -141 400 -169 87 -15 318 -6 397 16 54 15 216 80 302 121 l39 19 -69 6 c-63 6 -61 6 31 6 85 0 248 21 370 48 53 11 179 58 205 75 14 10 46 29 71 43 63 35 109 90 109 128 0 38 -13 63 -96 185 -82 121 -120 201 -135 279 -16 94 -56 214 -92 279 -25 47 -39 62 -67 72 -30 10 -40 9 -72 -9 -41 -23 -45 -28 -133 -234 -75 -178 -227 -405 -258 -386 -6 3 1 14 17 25 14 11 56 62 92 114 98 140 206 401 244 589 16 77 45 203 65 280 21 77 48 187 61 244 13 57 39 154 56 215 62 210 42 371 -73 596 -61 119 -161 243 -237 293 -86 56 -249 117 -330 122 -37 3 -114 18 -172 34 -58 17 -123 33 -145 37 -22 4 -87 32 -145 64 -173 94 -303 128 -365 95z m79 -1344 c-4 -17 -9 -30 -11 -27 -3 2 -2 19 2 36 4 17 9 30 11 27 2 -2 1 -18 -2 -36z m436 -886 c26 -23 26 -85 1 -140 -21 -47 -36 -61 -74 -70 -23 -6 -33 -2 -62 30 -44 46 -44 60 -2 60 25 0 33 5 35 21 4 27 -25 57 -49 51 -11 -3 -19 -1 -19 5 0 14 21 52 34 61 20 14 114 2 136 -18z m-855 -16 c-22 -67 1 -273 45 -415 11 -37 18 -69 16 -71 -7 -7 -53 146 -72 238 -12 62 -15 103 -9 163 4 45 7 89 7 99 -1 9 4 15 9 11 5 -3 7 -14 4 -25z"/>
<path d="M677 3544 c-43 -24 -83 -72 -117 -144 -18 -36 -44 -78 -59 -95 -90 -99 -134 -193 -122 -260 13 -66 48 -125 75 -125 35 0 73 42 90 101 20 65 46 95 112 124 62 27 124 104 147 180 9 28 16 41 16 30 1 -39 -20 -96 -50 -129 -26 -30 -37 -56 -24 -56 2 0 37 11 77 24 40 13 136 36 213 51 77 15 154 34 171 41 31 13 156 53 229 73 31 8 1 9 -125 4 -91 -4 -179 -7 -196 -7 -34 0 -124 50 -258 142 -87 60 -133 72 -179 46z"/>
<path d="M576 3491 c-14 -22 -25 -62 -16 -56 6 3 10 11 10 17 0 6 7 20 17 30 9 10 11 18 5 18 -6 0 -13 -4 -16 -9z"/>
<path d="M2729 3416 c82 -44 151 -99 151 -121 0 -6 16 -27 36 -46 l37 -34 -19 34 c-35 62 -164 173 -220 190 -16 5 -38 12 -49 16 -11 3 18 -14 64 -39z"/>
<path d="M1253 3383 c9 -2 25 -2 35 0 9 3 1 5 -18 5 -19 0 -27 -2 -17 -5z"/>
<path d="M2030 3163 c-25 -69 -46 -106 -69 -125 -14 -11 -25 -23 -25 -26 1 -4 -2 -17 -7 -30 -5 -12 -13 -51 -19 -85 -5 -34 -14 -78 -20 -97 -16 -56 -13 -60 27 -39 21 10 43 19 50 19 18 0 16 10 -4 33 -14 14 -17 33 -16 74 3 62 12 78 48 87 13 3 26 15 30 25 6 21 41 47 93 71 l33 15 -45 25 c-48 26 -63 46 -23 31 13 -5 39 -19 58 -30 19 -12 43 -21 54 -21 15 0 17 -2 6 -9 -24 -15 -5 -41 31 -41 30 1 68 19 68 33 0 3 -16 9 -35 13 -19 3 -35 10 -35 15 0 5 -6 9 -13 9 -7 0 -46 17 -87 37 -41 21 -78 39 -82 41 -5 2 -12 -9 -18 -25z"/>
<path d="M3000 3140 c0 -4 5 -11 10 -16 6 -6 26 -45 44 -87 l33 -77 169 -3 c184 -4 212 -10 343 -76 51 -26 66 -30 72 -19 15 23 10 72 -10 102 -11 17 -18 33 -15 37 2 4 -1 11 -7 15 -8 5 -10 2 -5 -7 4 -8 -1 -4 -11 7 -31 37 -64 51 -203 91 -128 36 -143 38 -277 38 -79 0 -143 -2 -143 -5z"/>
<path d="M2104 3053 c-28 -5 -60 -41 -48 -53 5 -5 21 -12 36 -15 21 -6 30 -2 43 19 16 24 15 58 -2 55 -4 -1 -18 -4 -29 -6z"/>
<path d="M349 3042 c12 -9 12 -13 2 -26 -7 -9 -10 -25 -6 -38 5 -19 4 -20 -5 -8 -8 10 -10 11 -8 2 2 -8 7 -13 11 -13 4 1 16 1 26 1 17 0 18 3 6 42 -6 23 -18 44 -26 46 -12 3 -12 2 0 -6z"/>
<path d="M320 3008 c0 -19 2 -20 10 -8 13 19 13 30 0 30 -5 0 -10 -10 -10 -22z"/>
<path d="M1977 2942 c-23 -25 -22 -52 2 -52 20 0 31 18 31 51 0 24 -12 24 -33 1z"/>
<path d="M3110 2940 c-12 -8 -11 -10 8 -10 12 0 22 5 22 10 0 13 -11 13 -30 0z"/>
<path d="M390 2921 c0 -24 15 -35 37 -27 14 6 14 9 -2 26 -23 25 -35 25 -35 1z"/>
<path d="M462 2902 c-15 -10 -5 -42 13 -42 12 0 25 21 25 41 0 11 -21 12 -38 1z"/>
<path d="M3594 2855 c22 -17 40 -20 32 -6 -3 5 -16 11 -28 14 -22 6 -22 5 -4 -8z"/>
<path d="M1003 1773 c15 -2 37 -2 50 0 12 2 0 4 -28 4 -27 0 -38 -2 -22 -4z"/>
<path d="M3042 1647 c14 -5 36 -28 48 -49 27 -47 42 -41 16 6 -17 32 -53 57 -79 55 -7 -1 0 -6 15 -12z"/>
<path d="M2405 370 c-27 -10 -41 -19 -30 -19 11 0 38 8 60 18 51 25 35 25 -30 1z"/>
</g>
<g id="layer103" fill="#70513b" stroke="none">
<path d="M1425 3335 c-89 -30 -372 -108 -440 -121 -109 -20 -340 -88 -371 -109 -31 -20 -46 -54 -119 -260 -35 -99 -88 -250 -118 -335 -74 -210 -129 -410 -125 -457 2 -31 7 -38 23 -37 51 3 411 113 717 218 153 52 320 104 370 115 233 50 364 108 424 186 23 30 94 273 114 390 5 28 11 59 15 70 5 14 -2 11 -22 -12 -58 -64 -230 -97 -325 -61 -26 10 -46 43 -34 56 3 3 -3 15 -14 27 -50 53 -85 211 -67 298 8 37 3 42 -28 32z"/>
<path d="M2024 3138 c-11 -31 -35 -69 -58 -92 -22 -21 -33 -35 -25 -31 12 7 12 6 1 -7 -7 -9 -20 -54 -28 -100 -8 -46 -19 -98 -25 -116 -14 -42 -8 -47 30 -28 16 9 37 16 46 16 8 0 15 5 15 10 0 6 -4 10 -9 10 -20 0 -33 59 -25 107 8 40 14 51 40 63 17 8 38 27 46 41 8 14 36 35 61 47 26 12 47 24 47 26 0 3 -18 15 -40 27 -22 13 -40 26 -40 31 0 10 37 -4 81 -31 33 -21 79 -28 79 -13 0 4 -37 25 -83 46 -45 22 -85 41 -88 43 -4 2 -15 -20 -25 -49z"/>
</g>
<g id="layer104" fill="#986f30" stroke="none">
<path d="M1415 3328 c-22 -5 -98 -27 -170 -49 -71 -22 -185 -51 -253 -65 -125 -26 -328 -84 -370 -106 -30 -15 -62 -78 -100 -194 -17 -49 -61 -174 -100 -279 -81 -221 -161 -483 -168 -552 -7 -70 3 -79 62 -60 94 30 179 56 239 71 70 18 323 101 545 179 85 30 200 65 255 76 261 57 400 124 448 218 17 31 54 170 92 342 l23 104 -33 -36 c-18 -20 -46 -39 -62 -42 -15 -4 -46 -13 -68 -20 -26 -10 -61 -12 -100 -9 -83 8 -114 21 -121 53 -3 14 -10 33 -15 41 -24 38 -51 105 -66 164 -12 52 -14 76 -5 118 5 29 9 53 9 54 -1 0 -20 -3 -42 -8z"/>
<path d="M2026 3141 c-9 -27 -35 -73 -57 -102 -21 -29 -41 -68 -45 -88 -12 -74 -33 -167 -40 -185 -6 -16 -4 -18 12 -11 10 4 34 13 52 19 29 10 44 26 23 26 -19 0 -33 59 -26 109 6 46 10 51 41 63 19 6 34 19 34 28 0 14 59 60 77 60 5 0 16 7 26 15 18 13 16 15 -22 35 -23 11 -41 25 -41 30 0 15 9 12 67 -20 51 -29 93 -39 93 -22 0 5 -19 15 -41 22 -23 8 -61 27 -86 42 -24 15 -45 28 -46 28 -2 0 -11 -22 -21 -49z"/>
</g>
<g id="layer105" fill="#886e5d" stroke="none">
<path d="M1265 3284 c-77 -24 -187 -53 -245 -65 -142 -28 -369 -95 -400 -117 -36 -27 -56 -69 -120 -252 -32 -91 -81 -230 -110 -310 -64 -179 -128 -395 -135 -458 -8 -68 2 -79 57 -60 23 9 93 30 153 47 61 17 272 85 470 151 198 65 401 128 450 139 247 53 374 119 419 216 20 42 78 269 101 395 l6 35 -28 -32 c-49 -55 -221 -87 -303 -56 -38 15 -50 28 -50 57 0 11 -8 29 -18 40 -38 43 -67 145 -66 234 1 100 12 97 -181 36z"/>
<path d="M2040 3177 c0 -23 -49 -117 -75 -144 -27 -30 -32 -45 -62 -189 l-19 -92 45 16 c26 9 48 17 50 19 1 1 -7 12 -19 25 -18 20 -21 32 -17 81 2 32 6 59 8 61 2 2 19 11 37 20 17 9 32 22 32 28 0 14 25 34 79 60 l43 21 -38 24 c-22 12 -43 23 -48 23 -6 0 -5 5 1 11 7 7 24 4 59 -14 47 -23 115 -45 103 -33 -19 19 -179 93 -179 83z"/>
</g>
<g id="layer106" fill="#696390" stroke="none">
<path d="M1641 3719 c-45 -18 -113 -82 -132 -123 -14 -30 -19 -65 -19 -131 0 -49 -7 -121 -17 -159 -14 -59 -15 -78 -4 -129 20 -99 43 -149 79 -173 28 -20 30 -22 12 -27 -26 -7 -16 -35 15 -47 25 -10 65 -3 65 11 0 5 0 12 1 17 0 4 -10 10 -23 13 -13 3 3 6 36 7 67 1 174 48 201 88 43 65 58 231 30 334 -8 30 -15 80 -15 110 -1 61 -19 120 -47 153 l-18 21 25 -15 c37 -23 62 -82 62 -142 0 -29 6 -80 14 -115 20 -88 18 -195 -6 -287 -11 -43 -21 -90 -21 -104 -1 -17 -3 -20 -6 -8 -2 9 -10 17 -16 17 -15 -1 -67 -46 -67 -59 0 -21 23 -22 51 -2 15 11 31 21 35 21 11 0 68 52 91 83 12 16 38 72 58 124 21 52 39 92 41 90 2 -2 -1 -18 -7 -36 -6 -18 -10 -34 -8 -35 2 -2 38 -20 79 -41 41 -21 86 -45 100 -54 14 -10 41 -18 60 -19 72 -5 266 -117 397 -230 71 -62 193 -203 193 -225 0 -7 -30 22 -67 63 -130 145 -243 238 -393 319 -83 45 -97 48 -114 25 -6 -8 -32 -20 -56 -25 -42 -10 -46 -9 -67 16 l-23 26 0 -28 c0 -42 -26 -73 -60 -73 -16 0 -32 5 -35 11 -4 5 -14 9 -23 7 -13 -2 -16 -12 -14 -40 4 -45 -12 -78 -39 -78 -37 0 -33 -28 10 -73 23 -23 60 -71 82 -107 172 -275 223 -364 250 -433 16 -44 29 -86 27 -95 -2 -9 -18 22 -36 68 -36 93 -247 453 -300 511 l-32 36 -59 -30 -58 -31 -22 -75 c-25 -86 -62 -146 -101 -166 -22 -12 -29 -24 -35 -67 -5 -29 -7 -56 -7 -60 1 -5 -3 -8 -8 -8 -13 0 -13 31 0 66 14 36 9 39 -37 16 -48 -24 -215 -79 -268 -88 -22 -4 -45 -9 -52 -13 -8 -4 12 -44 63 -121 81 -123 102 -146 149 -156 17 -3 81 -27 143 -52 113 -44 114 -45 167 -32 34 8 86 11 138 8 135 -9 130 -23 -6 -20 -119 3 -164 -6 -142 -27 10 -9 64 -30 205 -77 107 -36 201 -85 224 -116 29 -40 14 -44 -36 -10 -61 41 -132 75 -213 102 -38 13 -92 35 -120 51 -86 47 -306 137 -405 164 -138 39 -355 46 -490 16 -137 -31 -182 -56 -312 -180 -71 -68 -130 -116 -160 -129 -58 -25 -70 -56 -41 -104 20 -34 31 -37 99 -23 26 6 36 1 66 -29 25 -25 45 -36 65 -36 39 0 53 17 53 63 0 59 26 101 87 144 53 36 59 38 149 41 114 5 172 -12 264 -73 60 -40 110 -92 110 -113 0 -5 15 -26 34 -48 l34 -40 -18 -52 c-10 -28 -28 -65 -40 -82 -38 -53 -90 -33 -90 34 0 14 5 26 10 26 6 0 10 -5 10 -11 0 -6 10 -9 23 -7 16 2 22 10 22 28 0 21 -5 25 -27 25 -33 -1 -34 1 -8 43 11 18 28 32 39 32 18 0 18 3 8 23 -13 25 -42 57 -51 57 -3 0 -6 -11 -6 -25 0 -14 -12 -49 -27 -78 -55 -108 -38 -334 43 -563 5 -13 4 -16 -3 -9 -13 13 -47 111 -69 195 -36 137 -24 363 21 400 9 7 15 29 15 51 0 31 -4 39 -19 39 -27 0 -36 -14 -69 -115 -17 -49 -54 -142 -84 -206 -29 -64 -58 -129 -64 -145 -25 -62 -56 -213 -61 -292 -6 -77 -4 -84 18 -108 29 -32 91 -68 147 -88 23 -8 61 -28 85 -44 75 -52 161 -90 220 -97 36 -5 57 -12 57 -20 0 -7 21 -27 48 -43 218 -140 558 -181 808 -97 71 24 264 109 264 117 0 2 -28 4 -62 6 -106 4 -79 14 32 11 98 -2 155 4 355 43 132 25 285 95 367 167 39 35 43 43 43 84 0 39 -9 58 -76 158 -101 150 -133 217 -154 317 -20 99 -52 198 -88 268 -19 38 -35 55 -58 63 -46 16 -63 14 -93 -10 -29 -23 -43 -50 -129 -252 -68 -158 -229 -389 -254 -364 -3 4 10 23 30 42 43 42 123 158 159 230 66 134 147 355 164 445 9 52 37 174 61 270 25 96 56 222 69 280 13 58 35 141 49 185 56 186 56 283 -1 453 -54 163 -110 260 -218 378 -87 96 -286 189 -424 198 -37 3 -107 17 -156 31 -50 14 -113 31 -140 37 -28 5 -96 34 -151 64 -170 90 -296 127 -354 103z m489 -2226 c36 -21 44 -50 29 -109 -21 -83 -96 -138 -140 -101 -17 14 -42 52 -53 82 -6 16 -5 18 5 8 21 -21 57 -16 65 9 8 25 -27 61 -51 51 -23 -8 -19 33 5 57 25 25 100 27 140 3z"/>
<path d="M685 3546 c-41 -18 -87 -72 -121 -142 -16 -33 -52 -88 -81 -124 -70 -86 -103 -153 -103 -208 0 -65 44 -152 77 -152 26 0 70 54 88 110 20 60 40 82 101 109 115 52 206 240 161 331 -11 21 -12 30 -4 27 6 -2 14 -14 18 -28 21 -73 -3 -188 -52 -249 -18 -22 -30 -42 -28 -44 2 -2 36 6 74 19 39 12 134 35 210 50 77 15 168 39 202 52 34 13 102 34 150 47 l88 25 -75 0 c-41 0 -122 -4 -180 -9 -128 -12 -129 -11 -357 137 -91 59 -124 69 -168 49z"/>
<path d="M2701 3437 c12 -10 99 -55 99 -52 0 9 -75 55 -89 55 -8 0 -12 -1 -10 -3z"/>
<path d="M2891 3286 c20 -34 49 -65 49 -52 0 12 -53 86 -61 86 -5 0 1 -15 12 -34z"/>
<path d="M2040 3176 c0 -22 -49 -116 -75 -143 -27 -30 -32 -46 -62 -188 l-19 -91 46 15 c25 9 46 17 48 18 2 1 -6 11 -17 22 -16 16 -21 34 -21 72 0 62 11 84 50 97 16 6 30 17 30 24 0 13 41 44 93 70 l29 14 -46 25 c-61 32 -42 47 20 16 48 -23 115 -45 103 -32 -18 17 -179 91 -179 81z"/>
<path d="M3088 3143 c-43 -2 -78 -6 -78 -8 0 -2 18 -41 40 -86 l40 -83 142 -2 c167 -2 211 -11 336 -66 77 -34 96 -38 103 -27 31 49 -38 158 -121 192 -64 27 -264 76 -325 80 -33 2 -95 2 -137 0z"/>
<path d="M2212 3082 c-15 -2 -22 -9 -20 -20 5 -26 69 -28 92 -4 16 19 16 20 -16 23 -18 2 -43 3 -56 1z"/>
<path d="M2090 3042 c-42 -21 -45 -43 -7 -53 22 -6 32 -3 48 14 20 22 22 48 4 54 -5 1 -26 -5 -45 -15z"/>
<path d="M355 3018 c-9 -34 1 -66 16 -51 7 7 7 22 1 44 l-9 34 -8 -27z"/>
<path d="M1713 2966 c-53 -14 -63 -24 -39 -42 27 -19 37 -18 74 10 43 31 25 48 -35 32z"/>
<path d="M390 2921 c0 -22 25 -39 38 -27 8 8 -10 38 -26 44 -7 2 -12 -6 -12 -17z"/>
<path d="M464 2895 c-3 -8 -3 -19 1 -25 9 -14 35 6 35 26 0 19 -29 18 -36 -1z"/>
<path d="M1013 1773 c9 -2 25 -2 35 0 9 3 1 5 -18 5 -19 0 -27 -2 -17 -5z"/>
<path d="M2400 365 c-19 -7 -28 -14 -20 -14 8 0 29 6 45 14 39 17 21 18 -25 0z"/>
</g>
<g id="layer107" fill="#b78829" stroke="none">
<path d="M1265 3284 c-77 -24 -187 -53 -245 -65 -142 -28 -369 -95 -400 -117 -36 -27 -56 -69 -120 -252 -32 -91 -81 -230 -110 -310 -64 -179 -128 -395 -135 -458 -8 -68 2 -79 57 -60 23 9 93 30 153 47 61 17 272 85 470 151 198 65 401 128 450 139 155 33 276 77 334 120 62 46 76 64 97 123 14 40 75 291 89 368 l6 35 -28 -32 c-33 -38 -118 -65 -208 -67 -97 -2 -145 20 -145 68 0 11 -8 29 -18 40 -38 43 -67 145 -66 234 1 100 12 97 -181 36z"/>
<path d="M2040 3176 c0 -22 -49 -116 -75 -143 -27 -30 -32 -46 -62 -189 l-19 -91 41 16 c22 8 42 16 44 17 1 2 -4 13 -13 26 -18 25 -22 109 -6 138 5 10 23 23 40 28 16 6 30 17 30 24 0 13 41 44 93 70 l29 14 -46 25 c-61 32 -42 47 20 16 48 -23 115 -45 103 -32 -18 17 -179 91 -179 81z"/>
</g>
<g id="layer108" fill="#fdbe11" stroke="none">
<path d="M1255 3279 c-88 -27 -207 -58 -265 -69 -132 -25 -356 -93 -381 -116 -29 -26 -45 -63 -121 -279 -134 -383 -187 -544 -213 -650 -29 -113 -28 -161 3 -152 45 15 189 58 297 90 66 20 201 63 300 97 328 113 415 140 493 156 42 9 127 32 189 51 146 46 216 99 251 187 23 57 27 72 38 126 3 14 13 57 23 95 10 39 22 87 25 108 4 21 10 46 13 55 4 10 -8 4 -30 -15 -21 -18 -50 -35 -65 -38 -15 -3 -41 -10 -57 -15 -17 -5 -63 -8 -102 -6 -90 4 -131 27 -124 69 1 5 -8 20 -19 34 -11 14 -32 62 -46 107 -21 66 -25 93 -21 149 5 59 4 67 -11 66 -9 0 -89 -22 -177 -50z"/>
<path d="M2032 3146 c-7 -22 -33 -71 -58 -107 -36 -54 -47 -81 -58 -145 -8 -44 -17 -91 -21 -106 -8 -33 -8 -33 39 -13 35 15 36 17 21 38 -17 24 -20 108 -5 137 5 10 23 23 40 28 16 6 30 17 30 25 0 14 71 67 89 67 27 0 17 22 -19 40 -22 11 -40 25 -40 30 0 17 34 11 75 -15 22 -13 51 -24 65 -24 19 0 14 5 -22 19 -26 11 -65 30 -86 44 l-38 24 -12 -42z"/>
</g>
<g id="layer109" fill="#938eaa" stroke="none">
<path d="M1751 3746 c8 -6 99 -35 99 -31 0 9 -60 35 -81 35 -12 0 -20 -2 -18 -4z"/>
<path d="M1647 3720 c-44 -13 -118 -79 -138 -124 -14 -30 -19 -65 -19 -131 0 -49 -7 -124 -16 -165 -17 -76 -16 -76 11 -171 30 -105 37 -116 80 -135 26 -11 27 -13 8 -14 -28 0 -36 -13 -20 -33 12 -15 33 -21 70 -18 26 2 22 39 -5 44 -13 2 -5 4 17 4 98 0 202 51 229 112 38 87 47 216 21 311 -8 30 -15 78 -15 106 0 58 -14 106 -44 149 l-21 30 25 -16 c38 -24 61 -80 65 -156 2 -37 9 -90 16 -116 15 -62 6 -236 -15 -296 -9 -24 -16 -59 -16 -78 l0 -35 33 28 c47 39 75 85 119 193 32 79 43 89 23 21 -6 -18 174 -111 249 -129 118 -29 310 -154 446 -291 52 -53 106 -116 119 -141 20 -37 6 -25 -88 73 -116 121 -207 196 -326 266 -102 60 -129 68 -153 44 -11 -11 -37 -23 -58 -27 -34 -6 -41 -4 -61 20 l-23 26 0 -34 c0 -58 -35 -76 -110 -56 -11 3 -16 -8 -20 -41 -7 -55 -15 -70 -41 -70 -37 0 -31 -27 17 -79 44 -48 237 -349 291 -456 33 -63 74 -185 64 -185 -5 0 -25 39 -45 88 -20 48 -51 112 -69 143 -111 191 -193 323 -222 356 l-33 38 -60 -29 -61 -29 -17 -69 c-19 -78 -66 -157 -106 -175 -22 -11 -27 -21 -33 -73 -4 -33 -11 -60 -16 -60 -12 0 -11 47 2 72 15 27 4 34 -24 15 -20 -13 -228 -82 -314 -104 l-33 -8 69 -105 c85 -130 100 -145 165 -166 28 -9 95 -35 149 -57 90 -37 101 -39 136 -28 50 15 195 13 246 -3 36 -12 27 -13 -81 -8 -84 3 -127 1 -143 -8 -13 -6 -19 -15 -15 -20 5 -4 77 -31 159 -60 83 -29 168 -61 190 -72 47 -24 95 -66 95 -85 0 -18 -4 -17 -53 14 -55 35 -142 77 -192 93 -22 7 -87 35 -145 63 -306 146 -480 197 -670 197 -116 0 -234 -17 -324 -46 -55 -19 -128 -74 -241 -185 -44 -43 -97 -85 -117 -94 -53 -21 -74 -56 -58 -95 18 -44 31 -51 71 -39 64 19 79 20 79 5 0 -22 59 -66 89 -66 38 0 51 17 51 68 0 58 23 95 89 140 l53 37 117 0 c111 0 119 -1 184 -33 66 -33 177 -130 177 -156 0 -6 13 -27 29 -46 25 -31 27 -38 19 -70 -13 -48 -55 -117 -78 -130 -15 -8 -24 -6 -40 10 -21 21 -28 80 -10 80 6 0 10 -4 10 -10 0 -19 39 -10 45 10 9 28 -3 43 -31 37 -21 -4 -24 -1 -18 17 8 28 34 56 51 56 16 0 16 2 2 33 -6 12 -19 28 -30 35 -17 11 -19 9 -19 -13 0 -14 -12 -49 -27 -78 -49 -97 -43 -260 18 -472 33 -116 36 -138 8 -75 -48 106 -71 212 -75 334 -4 132 4 185 35 227 28 37 29 99 2 99 -27 0 -36 -16 -61 -100 -13 -41 -47 -127 -77 -190 -30 -63 -63 -137 -73 -165 -31 -81 -70 -269 -70 -332 0 -52 3 -62 28 -84 38 -35 72 -55 131 -78 28 -10 76 -36 106 -56 77 -51 151 -82 213 -90 29 -4 52 -12 52 -19 0 -15 86 -71 157 -102 82 -37 236 -74 333 -81 181 -12 345 22 535 112 84 41 88 43 55 45 -95 6 -88 19 10 18 172 -2 502 67 580 120 14 10 42 26 63 37 20 11 56 36 79 55 38 33 41 40 40 85 0 43 -8 59 -70 149 -91 133 -140 232 -157 320 -15 78 -49 180 -88 267 -26 57 -56 79 -108 79 -37 0 -77 -54 -129 -175 -29 -66 -63 -146 -77 -177 -39 -87 -184 -286 -210 -287 -20 -1 -15 16 11 36 35 27 143 184 176 256 55 122 140 335 140 352 0 29 68 329 105 465 42 153 91 346 116 460 32 143 4 297 -87 485 -48 101 -156 242 -218 287 -91 67 -269 138 -345 138 -22 0 -93 14 -158 31 -65 17 -138 35 -162 40 -25 5 -94 35 -155 68 -167 88 -274 120 -339 101z m484 -2227 c39 -23 45 -54 25 -119 -36 -115 -128 -138 -176 -44 -23 44 -26 60 -8 42 16 -16 43 -15 57 2 18 22 -3 56 -34 56 -29 0 -33 24 -9 58 12 18 25 22 66 22 29 0 62 -7 79 -17z"/>
<path d="M695 3548 c-48 -17 -91 -65 -131 -147 -21 -41 -52 -91 -69 -111 -84 -96 -115 -155 -115 -219 0 -59 45 -151 74 -151 27 0 67 49 87 105 23 66 41 85 113 122 79 40 134 117 157 218 10 46 10 61 -4 95 -8 22 -11 40 -6 40 15 0 29 -47 29 -93 0 -66 -25 -142 -61 -186 -18 -23 -30 -43 -28 -46 3 -2 34 6 69 19 36 13 130 36 210 51 80 15 168 37 195 48 28 11 93 33 145 49 l95 28 -150 -6 c-82 -3 -154 -9 -160 -14 -14 -11 -91 16 -140 50 -22 15 -71 46 -110 69 -38 23 -81 51 -95 61 -33 25 -68 31 -105 18z"/>
<path d="M571 3482 c-17 -31 -13 -40 5 -14 9 13 14 26 11 29 -3 2 -10 -4 -16 -15z"/>
<path d="M2701 3436 c9 -8 89 -46 89 -42 0 8 -67 46 -80 46 -7 0 -11 -2 -9 -4z"/>
<path d="M2880 3312 c0 -12 51 -84 57 -79 4 5 -46 87 -53 87 -2 0 -4 -3 -4 -8z"/>
<path d="M3010 3133 c0 -5 5 -14 10 -19 6 -6 23 -41 39 -78 l28 -68 154 -3 c169 -4 210 -13 342 -73 65 -29 80 -33 88 -21 16 26 9 56 -23 105 -46 67 -79 86 -220 125 -109 30 -140 34 -270 37 -82 2 -148 0 -148 -5z"/>
<path d="M2192 3063 c5 -28 69 -30 93 -3 18 20 18 20 -39 20 -49 0 -57 -2 -54 -17z"/>
<path d="M2104 3049 c-41 -12 -63 -37 -43 -50 28 -17 65 -10 79 16 17 33 4 45 -36 34z"/>
<path d="M357 3024 c-10 -10 -9 -52 2 -59 5 -3 12 -1 15 3 7 12 -8 65 -17 56z"/>
<path d="M1817 3004 c-27 -23 -31 -54 -9 -54 19 0 62 42 62 61 0 26 -19 23 -53 -7z"/>
<path d="M1717 2967 c-41 -10 -59 -33 -36 -48 17 -10 46 -2 76 21 32 25 10 40 -40 27z"/>
<path d="M1983 2943 c-25 -25 -29 -38 -12 -49 17 -10 41 21 37 47 l-3 24 -22 -22z"/>
<path d="M392 2918 c2 -12 11 -24 21 -26 24 -5 22 25 -4 38 -18 10 -20 9 -17 -12z"/>
<path d="M464 2895 c-10 -25 7 -40 23 -20 7 11 13 22 13 27 0 14 -30 9 -36 -7z"/>
<path d="M3049 1646 c13 -7 34 -31 47 -52 13 -21 24 -33 24 -26 0 24 -32 70 -57 81 -33 15 -43 13 -14 -3z"/>
<path d="M2405 365 c-25 -12 -26 -14 -5 -9 28 7 60 23 45 23 -5 0 -23 -6 -40 -14z"/>
</g>
<g id="layer110" fill="#dcdcdc" stroke="none">
<path d="M1790 3734 c56 -17 62 -17 30 1 -14 8 -36 14 -50 14 -18 0 -12 -4 20 -15z"/>
<path d="M1594 3687 c-77 -53 -97 -99 -106 -237 -4 -63 -10 -147 -14 -185 -5 -57 -2 -84 16 -145 35 -121 70 -146 188 -135 58 5 81 13 119 38 59 41 81 83 95 189 9 71 9 95 -5 157 -10 40 -17 97 -17 125 0 68 -15 119 -46 156 -28 33 -27 35 10 19 34 -16 56 -76 66 -179 5 -47 14 -101 19 -120 16 -52 13 -114 -10 -215 -11 -49 -23 -105 -26 -124 l-6 -34 41 33 c42 33 66 75 123 214 35 83 48 91 26 16 l-13 -44 81 -39 c44 -21 87 -44 95 -51 8 -8 35 -16 60 -19 60 -8 206 -83 305 -157 98 -73 213 -187 262 -257 62 -90 31 -77 -57 23 -122 140 -263 250 -419 328 l-53 27 -23 -21 c-14 -13 -42 -24 -68 -27 -38 -5 -47 -2 -61 18 l-16 23 0 -32 c0 -40 -33 -76 -63 -69 -12 3 -32 8 -44 12 -20 6 -22 3 -25 -41 -3 -42 -7 -51 -30 -62 -16 -7 -28 -18 -28 -23 0 -6 23 -38 51 -72 50 -61 240 -360 284 -447 29 -59 67 -171 60 -178 -10 -10 -22 11 -55 93 -17 44 -52 114 -77 155 -25 41 -77 128 -117 194 -39 65 -84 131 -99 146 l-29 28 -58 -26 c-56 -26 -58 -28 -70 -82 -18 -81 -47 -136 -91 -174 -32 -27 -41 -43 -50 -89 -7 -32 -15 -57 -20 -57 -17 0 -19 20 -6 59 l14 40 -36 -18 c-49 -25 -246 -88 -298 -96 l-41 -6 74 -111 c41 -60 74 -113 74 -117 0 -9 57 -37 105 -51 22 -7 83 -30 135 -52 84 -36 98 -39 125 -29 43 15 222 13 265 -4 32 -12 23 -14 -107 -14 -199 -1 -198 -6 17 -80 189 -64 254 -99 280 -149 14 -28 6 -40 -15 -22 -40 34 -153 89 -260 127 -38 14 -93 39 -121 54 -84 48 -312 138 -419 166 -191 50 -445 38 -592 -27 -50 -22 -176 -124 -241 -194 -24 -26 -66 -59 -95 -74 -47 -25 -52 -31 -55 -64 -5 -53 25 -81 70 -66 69 21 76 21 83 -2 8 -25 61 -60 92 -60 28 0 45 31 42 73 -3 37 27 106 50 115 9 3 30 16 46 28 92 68 283 52 409 -36 48 -33 116 -104 116 -123 1 -6 14 -27 29 -45 24 -28 27 -39 21 -65 -14 -64 -68 -147 -95 -147 -21 0 -48 39 -47 69 1 52 23 113 48 136 27 25 24 46 -10 75 -14 11 -16 9 -16 -16 0 -16 -12 -54 -26 -84 -51 -105 -40 -274 31 -503 27 -87 13 -104 -18 -21 -50 131 -66 224 -64 365 2 130 3 137 30 175 35 52 37 94 2 94 -22 0 -27 -9 -53 -92 -16 -51 -44 -122 -62 -158 -63 -125 -100 -223 -125 -329 -29 -128 -40 -210 -31 -245 8 -31 75 -79 159 -113 33 -14 80 -38 104 -54 68 -47 165 -89 205 -89 45 0 68 -8 68 -24 0 -29 111 -89 255 -137 100 -33 101 -33 295 -34 189 0 198 1 280 29 47 16 126 48 175 71 89 43 89 43 50 44 -49 2 -85 11 -85 22 0 8 156 3 170 -6 3 -2 24 0 46 5 21 6 95 19 164 31 203 33 370 103 459 190 30 31 33 38 29 80 -4 38 -20 69 -80 161 -97 145 -126 204 -144 292 -19 90 -60 217 -91 279 -17 35 -34 53 -59 63 -74 31 -104 -2 -193 -213 -48 -112 -91 -196 -122 -240 -27 -38 -60 -84 -73 -103 -34 -51 -62 -74 -83 -66 -14 6 -11 13 24 44 47 42 137 174 170 247 94 212 132 319 157 440 14 72 42 193 62 270 20 77 43 167 51 200 47 188 64 257 83 324 33 120 28 233 -15 365 -55 170 -122 284 -240 407 -75 78 -266 166 -379 174 -33 2 -95 13 -136 24 -41 12 -106 28 -145 37 -41 9 -122 42 -198 80 -229 117 -306 130 -393 71z m545 -2194 c31 -24 37 -60 20 -120 -17 -63 -58 -103 -103 -103 -31 0 -40 6 -66 42 -16 22 -30 50 -30 61 0 19 1 19 20 2 27 -24 52 -13 48 22 -3 25 -7 28 -36 26 -28 -1 -32 2 -27 18 3 10 7 27 10 38 12 43 112 52 164 14z"/>
<path d="M668 3532 c-45 -29 -75 -68 -108 -139 -17 -37 -42 -79 -55 -93 -51 -55 -106 -137 -116 -173 -5 -21 -7 -57 -4 -81 7 -46 43 -117 62 -123 21 -7 73 52 91 104 23 67 45 90 107 118 80 37 135 105 160 200 15 60 12 106 -11 143 -19 29 0 29 20 0 38 -54 8 -218 -50 -279 -33 -35 -28 -44 12 -24 33 16 139 44 289 75 95 20 358 100 352 107 -2 2 -70 -3 -151 -11 -131 -13 -152 -12 -184 1 -43 18 -160 88 -251 150 -71 48 -117 55 -163 25z"/>
<path d="M2894 3292 c8 -16 22 -35 32 -43 10 -8 5 4 -11 29 -32 48 -42 55 -21 14z"/>
<path d="M3054 3050 l40 -85 160 -1 c150 -1 166 -3 236 -29 41 -15 96 -38 122 -51 26 -13 50 -24 53 -24 13 0 3 78 -14 105 -49 78 -75 93 -257 140 -129 34 -148 36 -260 33 l-120 -3 40 -85z"/>
<path d="M2195 3070 c-21 -33 61 -42 90 -10 18 20 17 20 -33 20 -28 0 -54 -4 -57 -10z"/>
<path d="M2083 3040 c-31 -12 -29 -38 2 -46 29 -7 55 10 55 37 0 21 -20 24 -57 9z"/>
<path d="M1815 3000 c-24 -25 -27 -33 -15 -40 17 -11 46 3 60 30 26 48 -3 54 -45 10z"/>
<path d="M350 2995 c0 -16 6 -25 16 -25 11 0 14 5 10 16 -3 9 -6 20 -6 25 0 5 -4 9 -10 9 -5 0 -10 -11 -10 -25z"/>
<path d="M1551 2972 c-9 -3 -8 -9 5 -23 18 -20 74 -27 74 -9 0 6 1 13 3 17 2 9 -64 21 -82 15z"/>
<path d="M1692 2959 c-30 -12 -23 -33 12 -37 26 -3 66 21 66 40 0 11 -49 9 -78 -3z"/>
<path d="M1969 2929 c-7 -15 -8 -24 0 -32 14 -14 41 9 41 34 0 26 -27 24 -41 -2z"/>
<path d="M392 2914 c2 -11 11 -20 22 -22 13 -3 17 1 14 14 -2 11 -11 20 -22 22 -13 3 -17 -1 -14 -14z"/>
<path d="M471 2901 c-9 -6 -11 -16 -7 -27 7 -18 8 -18 22 0 23 32 16 46 -15 27z"/>
<path d="M3088 1611 c15 -22 29 -37 30 -36 7 6 -31 64 -45 69 -6 3 0 -12 15 -33z"/>
<path d="M1337 1470 c-7 -28 19 -48 39 -28 18 18 8 48 -16 48 -10 0 -20 -9 -23 -20z"/>
</g>


</svg>