<!DOCTYPE svg PUBLIC "-//W3C//DTD SVG 20010904//EN" "http://www.w3.org/TR/2001/REC-SVG-20010904/DTD/svg10.dtd">
<svg version="1.0" xmlns="http://www.w3.org/2000/svg" width="1009px" height="132px" viewBox="0 0 10090 1320" preserveAspectRatio="xMidYMid meet">
<g id="layer101" fill="#000000" stroke="none">
<path d="M4885 888 c-3 -8 -4 -128 -3 -268 l3 -255 198 -3 197 -2 0 55 0 55 -130 0 -130 0 0 45 0 45 108 0 c59 0 113 4 120 9 9 5 12 25 10 57 l-3 49 -117 3 -118 3 0 54 0 54 133 3 132 3 0 50 0 50 -198 3 c-154 2 -199 0 -202 -10z"/>
<path d="M5325 888 c-3 -7 -4 -128 -3 -268 l3 -255 62 -3 62 -3 83 141 83 141 5 -138 5 -138 65 0 65 0 0 265 0 265 -62 3 -61 3 -86 -143 -85 -142 -3 139 -3 140 -63 3 c-44 2 -64 -1 -67 -10z"/>
<path d="M5884 890 c-11 -4 -33 -22 -47 -40 l-27 -32 0 -187 c0 -176 1 -190 21 -215 37 -47 68 -56 196 -56 99 0 123 3 150 20 44 26 64 60 66 112 l2 43 -67 3 c-65 3 -68 2 -68 -21 0 -36 -19 -47 -81 -47 -85 0 -89 6 -89 156 0 69 5 134 10 145 9 16 22 19 73 19 72 0 87 -10 87 -57 l0 -32 -57 -3 -58 -3 0 -50 0 -50 125 0 125 0 0 105 c0 174 -29 200 -222 199 -65 0 -127 -4 -139 -9z"/>
<path d="M6297 894 c-4 -4 -7 -29 -7 -56 0 -47 1 -48 30 -48 l30 0 0 -160 0 -160 -31 0 -30 0 3 -52 3 -53 125 0 125 0 3 53 3 52 -30 0 -31 0 0 160 0 160 31 0 30 0 -3 53 -3 52 -121 3 c-66 1 -123 -1 -127 -4z"/>
<path d="M6602 633 l3 -268 56 -3 c40 -2 59 1 68 12 7 8 48 75 91 148 l79 133 3 -145 3 -145 60 0 60 0 3 268 2 267 -63 0 -62 0 -88 -147 -87 -148 0 148 0 147 -65 0 -65 0 2 -267z"/>
<path d="M7095 887 c-3 -7 -4 -127 -3 -267 l3 -255 200 0 200 0 0 50 0 50 -132 3 -133 3 0 44 0 45 108 0 c59 0 113 4 120 9 9 5 12 25 10 57 l-3 49 -117 3 -118 3 0 54 0 55 135 0 135 0 0 55 0 55 -200 0 c-153 0 -202 -3 -205 -13z"/>
<path d="M7552 633 l3 -268 195 0 195 0 3 53 3 52 -130 0 -131 0 0 45 0 45 108 0 c119 0 132 5 132 56 0 63 -1 64 -126 64 l-114 0 0 55 0 54 133 3 132 3 0 50 0 50 -203 3 -202 2 2 -267z"/>
<path d="M8010 651 c0 -270 1 -273 56 -287 13 -3 77 -5 141 -3 129 4 166 17 207 72 33 44 35 167 4 226 -13 25 -36 52 -54 61 l-31 16 53 69 c30 37 54 74 54 82 0 9 -18 13 -69 13 l-68 0 -63 -80 c-83 -106 -98 -106 -102 -2 l-3 77 -62 3 -63 3 0 -250z m264 -31 c24 -9 26 -15 26 -64 0 -31 -5 -58 -12 -64 -7 -5 -43 -13 -80 -17 l-68 -7 0 81 0 81 54 0 c30 0 66 -4 80 -10z"/>
<path d="M8460 845 c0 -54 0 -55 30 -55 l30 0 0 -160 0 -160 -31 0 -30 0 3 -52 3 -53 125 0 125 0 0 50 c0 47 -2 50 -27 53 l-28 3 0 159 0 159 28 3 c25 3 27 6 27 53 l0 50 -127 3 -128 3 0 -56z"/>
<path d="M8770 630 l0 -271 62 3 63 3 85 144 85 143 3 -146 3 -147 62 3 62 3 0 265 0 265 -61 3 -61 3 -84 -141 -84 -141 -5 138 -5 138 -62 3 -63 3 0 -271z"/>
<path d="M9313 880 c-57 -34 -63 -59 -63 -252 0 -196 9 -226 75 -254 53 -22 250 -19 294 4 42 23 71 74 71 124 l0 38 -70 0 c-66 0 -70 -1 -70 -23 0 -13 -5 -28 -12 -35 -16 -16 -120 -16 -136 0 -8 8 -12 57 -12 154 0 161 -4 154 84 154 61 0 76 -12 76 -57 l0 -33 -55 0 -55 0 0 -55 0 -56 123 3 122 3 3 100 c4 174 -29 205 -223 205 -101 0 -125 -3 -152 -20z"/>
</g>
<g id="layer102" fill="#ffc000" stroke="none">
<path d="M1055 911 c-68 -17 -117 -65 -135 -131 -6 -22 -9 -118 -8 -227 l3 -188 65 0 65 0 5 190 c6 218 14 245 73 245 35 0 44 -5 67 -34 12 -15 16 -61 20 -210 l5 -191 65 0 65 0 0 205 c0 181 -2 209 -19 240 -24 46 -45 69 -78 86 -32 17 -152 26 -193 15z"/>
<path d="M415 888 c-3 -7 -4 -128 -3 -268 l3 -255 56 -3 55 -3 53 96 c29 52 54 95 56 95 2 0 27 -43 56 -95 l53 -96 55 3 56 3 0 265 0 265 -55 0 -55 0 -5 -144 -5 -143 -22 46 -23 46 -55 0 -55 0 -23 -46 -22 -46 -5 143 -5 144 -53 3 c-36 2 -54 -1 -57 -10z"/>
<path d="M1412 633 l3 -268 65 0 65 0 3 207 2 207 128 3 127 3 0 55 0 55 -198 3 -197 2 2 -267z"/>
<path d="M1866 884 c-3 -9 -6 -103 -6 -209 l0 -194 -72 -3 -73 -3 0 -55 0 -55 215 0 215 0 3 58 3 57 -71 0 -70 0 0 194 c0 107 -3 201 -6 210 -9 23 -129 23 -138 0z"/>
<path d="M2217 894 c-4 -4 -7 -29 -7 -56 0 -47 1 -48 30 -48 l30 0 0 -160 0 -160 -31 0 -30 0 3 -52 3 -53 125 0 125 0 3 53 3 52 -30 0 -31 0 0 160 0 160 31 0 30 0 -3 53 -3 52 -121 3 c-66 1 -123 -1 -127 -4z"/>
<path d="M2525 888 c-3 -7 -4 -128 -3 -268 l3 -255 56 -3 55 -3 53 96 c29 52 54 95 56 95 2 0 27 -43 56 -95 l53 -96 55 3 56 3 0 265 0 265 -55 0 -55 0 -5 -144 -5 -143 -22 46 -23 46 -55 0 -55 0 -23 -46 -22 -46 -5 143 -5 144 -53 3 c-36 2 -54 -1 -57 -10z"/>
<path d="M3035 888 c-3 -8 -4 -128 -3 -268 l3 -255 198 -3 197 -2 0 55 0 55 -130 0 -130 0 0 45 0 45 108 0 c59 0 113 4 120 9 9 5 12 25 10 57 l-3 49 -117 3 -118 3 0 54 0 54 133 3 132 3 0 50 0 50 -198 3 c-154 2 -199 0 -202 -10z"/>
<path d="M3499 881 c-24 -19 -24 -19 -24 -251 l0 -232 25 -20 c22 -18 36 -20 160 -16 120 3 139 6 172 26 63 39 78 86 78 247 0 120 -3 145 -21 181 -33 69 -76 84 -236 84 -114 0 -134 -2 -154 -19z m252 -110 c23 -18 24 -25 24 -135 0 -143 -9 -157 -105 -164 l-60 -4 0 161 0 161 59 0 c43 0 65 -5 82 -19z"/>
<path d="M3937 894 c-4 -4 -7 -29 -7 -56 0 -47 1 -48 30 -48 l30 0 0 -160 0 -160 -31 0 -30 0 3 -52 3 -53 125 0 125 0 3 53 3 52 -30 0 -31 0 0 160 0 160 31 0 30 0 -3 53 -3 52 -121 3 c-66 1 -123 -1 -127 -4z"/>
<path d="M4240 698 c0 -227 8 -259 69 -311 42 -35 63 -40 168 -36 105 5 138 23 174 96 21 45 23 60 23 248 l1 200 -65 0 -65 0 -3 -87 -3 -88 -84 0 -85 0 0 90 0 90 -65 0 -65 0 0 -202z m300 -115 c0 -52 -50 -123 -86 -123 -27 0 -66 46 -74 88 l-7 42 83 0 c46 0 84 -3 84 -7z"/>
</g>


</svg>