<!DOCTYPE svg PUBLIC "-//W3C//DTD SVG 20010904//EN" "http://www.w3.org/TR/2001/REC-SVG-20010904/DTD/svg10.dtd">
<svg version="1.0" xmlns="http://www.w3.org/2000/svg" width="660px" height="213px" viewBox="0 0 6600 2130" preserveAspectRatio="xMidYMid meet">
<g id="layer101" fill="#000000" stroke="none">
<path d="M425 1698 c-3 -8 -4 -128 -3 -268 l3 -255 198 -3 197 -2 0 55 0 55 -130 0 -130 0 0 45 0 45 108 0 c59 0 113 4 120 9 9 5 12 25 10 57 l-3 49 -117 3 -118 3 0 54 0 54 133 3 132 3 0 50 0 50 -198 3 c-154 2 -199 0 -202 -10z"/>
<path d="M930 1440 l0 -271 62 3 63 3 85 144 85 143 3 -146 3 -147 62 3 62 3 0 265 0 265 -61 3 -61 3 -84 -141 -84 -141 -5 138 -5 138 -62 3 -63 3 0 -271z"/>
<path d="M1532 1690 c-53 -33 -62 -68 -62 -252 0 -186 10 -220 70 -250 46 -23 243 -25 295 -4 45 19 75 69 75 124 l0 43 -67 -3 c-64 -3 -68 -5 -72 -28 -1 -14 -8 -28 -15 -32 -18 -12 -121 -9 -134 4 -17 17 -17 279 0 296 12 12 104 17 132 6 11 -4 16 -19 16 -45 l0 -39 -56 0 -55 0 3 -52 3 -53 120 0 120 0 3 102 c5 176 -24 203 -218 203 -108 0 -130 -3 -158 -20z"/>
<path d="M2027 1704 c-4 -4 -7 -29 -7 -56 0 -47 1 -48 30 -48 l30 0 0 -160 0 -160 -31 0 -30 0 3 -52 3 -53 125 0 125 0 3 53 3 52 -30 0 -31 0 0 160 0 160 31 0 30 0 -3 53 -3 52 -121 3 c-66 1 -123 -1 -127 -4z"/>
<path d="M2395 1697 c-3 -7 -4 -127 -3 -267 l3 -255 61 -3 62 -3 83 143 84 143 5 -140 5 -140 63 -3 62 -3 0 271 0 271 -62 -3 -62 -3 -81 -135 -80 -134 -2 114 c-4 166 -1 160 -74 160 -39 0 -61 -4 -64 -13z"/>
<path d="M2950 1440 l0 -270 198 2 197 3 3 53 3 52 -135 0 -136 0 0 45 0 44 118 3 117 3 0 55 0 55 -117 3 -118 3 0 54 0 55 135 0 135 0 0 55 0 55 -200 0 -200 0 0 -270z"/>
<path d="M3470 1440 l0 -270 198 2 197 3 3 53 3 52 -135 0 -136 0 0 45 0 44 118 3 117 3 0 55 0 55 -117 3 -118 3 0 54 0 55 135 0 135 0 0 55 0 55 -200 0 -200 0 0 -270z"/>
<path d="M3984 1697 c-3 -8 -4 -120 -2 -250 3 -211 5 -238 21 -254 15 -16 37 -18 160 -18 124 0 146 3 176 20 63 37 76 66 76 163 0 100 -18 143 -72 171 l-32 16 54 70 c30 39 55 76 55 83 0 8 -21 12 -70 12 l-70 0 -62 -80 c-82 -104 -96 -105 -100 -2 l-3 77 -63 3 c-46 2 -64 -1 -68 -11z m274 -273 c44 -30 23 -134 -27 -134 -10 0 -39 -3 -65 -6 l-46 -7 0 82 0 81 58 0 c36 0 66 -6 80 -16z"/>
<path d="M4507 1704 c-4 -4 -7 -29 -7 -56 0 -47 1 -48 30 -48 l30 0 0 -160 0 -160 -31 0 -30 0 3 -52 3 -53 125 0 125 0 3 53 3 52 -30 0 -31 0 0 160 0 160 31 0 30 0 -3 53 -3 52 -121 3 c-66 1 -123 -1 -127 -4z"/>
<path d="M4875 1697 c-3 -7 -4 -127 -3 -267 l3 -255 61 -3 62 -3 83 143 84 143 5 -140 5 -140 63 -3 62 -3 0 271 0 271 -62 -3 -62 -3 -81 -135 -80 -134 -2 114 c-4 166 -1 160 -74 160 -39 0 -61 -4 -64 -13z"/>
<path d="M5481 1693 c-58 -29 -71 -73 -71 -253 0 -245 21 -270 219 -270 166 0 211 26 219 125 l4 55 -66 0 c-59 0 -66 -2 -66 -19 0 -34 -28 -51 -81 -51 -89 0 -89 1 -89 158 0 94 4 142 12 150 7 7 39 12 75 12 68 0 83 -12 83 -64 0 -23 -4 -25 -57 -28 l-58 -3 0 -50 0 -50 123 -3 122 -3 0 116 0 115 -34 38 -34 37 -134 3 c-109 2 -139 -1 -167 -15z"/>
</g>
<g id="layer102" fill="#ffc000" stroke="none">
<path d="M1117 911 c-51 -11 -87 -39 -117 -92 -24 -43 -25 -49 -25 -249 l0 -205 65 0 65 0 5 190 c6 228 12 245 91 245 55 0 63 -30 69 -245 l5 -190 65 0 65 0 3 188 c1 109 -2 205 -8 227 -12 46 -51 95 -91 116 -35 18 -139 26 -192 15z"/>
<path d="M415 888 c-3 -7 -4 -128 -3 -268 l3 -255 56 -3 55 -3 53 96 c29 52 54 95 56 95 2 0 27 -43 56 -95 l53 -96 55 3 56 3 0 265 0 265 -55 0 -55 0 -5 -144 -5 -143 -22 46 -23 46 -55 0 -55 0 -23 -46 -22 -46 -5 143 -5 144 -53 3 c-36 2 -54 -1 -57 -10z"/>
<path d="M1535 887 c-3 -7 -4 -127 -3 -267 l3 -255 68 -3 67 -3 0 210 0 210 128 3 127 3 3 58 3 57 -196 0 c-149 0 -197 -3 -200 -13z"/>
<path d="M2057 893 c-4 -3 -7 -98 -7 -210 l0 -203 -75 0 -76 0 3 -57 3 -58 215 0 215 0 0 55 0 55 -72 3 -73 3 0 209 0 210 -63 0 c-35 0 -67 -3 -70 -7z"/>
<path d="M2467 894 c-4 -4 -7 -29 -7 -56 0 -47 1 -48 30 -48 l30 0 0 -160 0 -160 -31 0 -30 0 3 -52 3 -53 125 0 125 0 3 53 3 52 -30 0 -31 0 0 160 0 160 31 0 30 0 -3 53 -3 52 -121 3 c-66 1 -123 -1 -127 -4z"/>
<path d="M2835 887 c-3 -7 -4 -127 -3 -267 l3 -255 57 -3 57 -3 53 95 c29 52 55 93 57 90 3 -2 28 -44 56 -92 l51 -87 54 0 55 0 3 268 2 268 -57 -3 -58 -3 -3 -140 -3 -140 -22 40 c-22 39 -25 40 -79 43 l-57 3 -25 -48 -25 -48 -1 148 0 147 -55 0 c-36 0 -57 -5 -60 -13z"/>
<path d="M3410 630 l0 -270 198 2 197 3 3 53 3 52 -135 0 -136 0 0 45 0 44 118 3 117 3 0 55 0 55 -117 3 -118 3 0 54 0 55 135 0 135 0 0 55 0 55 -200 0 -200 0 0 -270z"/>
<path d="M3935 875 l-25 -24 0 -221 0 -221 25 -24 c23 -24 30 -25 145 -25 132 0 174 11 223 57 38 37 47 79 47 219 0 128 -9 174 -44 213 -37 42 -76 51 -216 51 -126 0 -132 -1 -155 -25z m253 -101 c21 -14 22 -23 22 -133 0 -149 -7 -160 -98 -168 l-62 -6 0 162 0 161 58 0 c36 0 66 -6 80 -16z"/>
<path d="M4437 894 c-4 -4 -7 -29 -7 -56 0 -47 1 -48 30 -48 l30 0 0 -160 0 -160 -31 0 -30 0 3 -52 3 -53 125 0 125 0 3 53 3 52 -30 0 -31 0 0 160 0 160 31 0 30 0 -3 53 -3 52 -121 3 c-66 1 -123 -1 -127 -4z"/>
<path d="M4800 713 c0 -201 8 -249 46 -301 41 -54 73 -64 185 -60 115 4 140 17 179 94 24 47 25 56 25 249 l0 200 -65 0 -65 0 -3 -87 -3 -88 -79 0 -79 0 -3 88 -3 87 -67 3 -68 3 0 -188z m300 -143 c0 -38 -28 -90 -55 -100 -50 -19 -105 30 -105 95 0 25 1 25 80 25 74 0 80 -2 80 -20z"/>
</g>


</svg>