<!DOCTYPE svg PUBLIC "-//W3C//DTD SVG 20010904//EN" "http://www.w3.org/TR/2001/REC-SVG-20010904/DTD/svg10.dtd">
<svg version="1.0" xmlns="http://www.w3.org/2000/svg" width="800px" height="500px" viewBox="0 0 8000 5000" preserveAspectRatio="xMidYMid meet">
<g id="layer101" fill="#170c59" stroke="none">
<path d="M1860 4184 c-103 -59 -140 -124 -140 -252 l0 -83 -192 2 c-206 1 -239 8 -288 53 -14 13 -49 36 -79 51 -30 15 -78 43 -107 62 -46 31 -58 34 -91 28 -51 -9 -117 -80 -167 -179 -21 -43 -63 -105 -92 -139 -52 -59 -94 -144 -94 -188 0 -11 -7 -31 -16 -44 -18 -28 -11 -83 12 -92 8 -3 14 -15 14 -28 0 -29 30 -55 63 -55 42 0 41 -28 -7 -151 -106 -276 -202 -608 -192 -664 10 -52 27 -60 94 -46 123 26 513 146 820 253 113 39 156 50 168 43 18 -11 139 -193 133 -199 -2 -2 -28 0 -57 4 -69 11 -334 -5 -392 -23 -63 -21 -196 -93 -250 -135 -25 -20 -67 -60 -95 -89 -27 -29 -70 -63 -94 -76 -51 -26 -78 -59 -87 -103 -5 -26 0 -38 27 -69 34 -39 52 -41 126 -19 18 5 25 1 32 -18 5 -14 25 -33 45 -42 31 -15 39 -15 70 -2 28 12 37 23 46 58 26 96 35 112 85 147 47 35 53 36 147 39 108 4 154 -8 217 -55 28 -22 31 -27 17 -35 -21 -12 -52 -74 -67 -134 -11 -45 -106 -263 -119 -274 -13 -10 -60 -167 -80 -262 -44 -213 -18 -266 167 -336 27 -10 71 -34 98 -53 58 -41 163 -89 193 -89 12 0 24 -4 27 -10 3 -5 14 -10 24 -10 10 0 30 -11 45 -25 68 -63 277 -138 438 -157 205 -24 400 13 603 114 99 50 186 75 312 88 54 6 116 16 138 21 60 15 174 59 188 73 6 7 36 25 65 41 154 84 165 159 49 332 -89 133 -134 227 -148 309 -16 92 -51 193 -94 269 -28 51 -42 66 -75 79 -48 19 -91 21 -108 4 -9 -9 -9 -4 -2 23 6 19 39 165 75 325 36 160 84 353 107 430 37 126 41 149 40 244 -1 92 -9 146 -38 239 l-7 24 139 -6 c169 -8 203 -16 322 -72 51 -24 99 -42 106 -39 8 3 20 18 26 34 11 26 10 38 -6 103 -1 4 -2 11 -3 17 -3 21 -67 83 -110 104 -25 13 -104 38 -175 56 -123 31 -136 32 -266 28 l-137 -5 -44 51 c-24 28 -56 68 -70 89 -65 97 -275 196 -454 212 -38 4 -114 20 -169 36 -54 16 -108 29 -120 29 -11 0 -82 31 -157 69 -205 105 -304 124 -389 75z m24 -760 c20 -8 9 -34 -16 -34 -24 0 -58 18 -58 30 0 11 49 13 74 4z m86 -11 c0 -5 -5 -15 -10 -23 -7 -12 -12 -12 -22 -2 -10 10 -10 15 2 22 18 12 30 13 30 3z m-1280 -54 c0 -11 -11 -11 -29 0 -7 5 -10 14 -6 20 5 9 10 9 21 0 8 -6 14 -15 14 -20z m60 -9 c0 -11 -7 -20 -15 -20 -18 0 -19 12 -3 28 16 16 18 15 18 -8z m885 -1430 c0 -13 -6 -25 -12 -27 -16 -6 -27 21 -19 43 9 23 31 11 31 -16z m648 -52 c15 -23 -9 -53 -29 -37 -20 17 -18 61 2 57 9 -2 22 -10 27 -20z"/>
<path d="M2144 779 c11 -7 68 -13 135 -15 l116 -3 -100 8 c-55 5 -116 11 -135 15 -29 6 -32 5 -16 -5z"/>
</g>
<g id="layer102" fill="#4c3e68" stroke="none">
<path d="M1901 4179 c-43 -17 -111 -79 -133 -122 -18 -34 -22 -61 -23 -147 -1 -58 -8 -135 -15 -171 -13 -62 -12 -72 10 -148 13 -45 32 -93 42 -106 31 -40 81 -58 135 -51 122 17 201 67 223 141 21 72 24 214 6 292 -9 40 -16 92 -16 116 0 54 -16 105 -44 136 l-21 24 27 -17 c33 -21 58 -82 58 -142 0 -25 7 -77 16 -116 27 -120 -1 -350 -45 -365 -28 -10 -80 -65 -74 -79 8 -21 24 -17 79 18 27 18 56 31 64 29 8 -2 12 0 8 4 -4 4 5 24 20 44 16 20 35 54 44 76 42 105 59 139 53 110 -5 -29 -2 -32 52 -59 32 -16 77 -42 101 -58 25 -16 57 -28 76 -28 38 0 190 -72 277 -131 96 -65 191 -151 258 -234 84 -105 77 -118 -12 -20 -137 151 -276 262 -414 330 l-72 35 -25 -25 c-34 -34 -98 -35 -120 -3 l-16 22 0 -30 c0 -43 -25 -74 -60 -74 -16 0 -31 4 -34 9 -4 5 -14 8 -24 7 -13 -2 -17 -12 -17 -43 0 -42 -18 -73 -42 -73 -31 0 -24 -31 17 -74 42 -44 208 -304 282 -443 38 -71 82 -183 74 -190 -2 -2 -18 32 -36 77 -38 93 -255 460 -300 506 l-30 32 -60 -30 c-58 -30 -59 -30 -80 -101 -22 -73 -58 -147 -71 -147 -4 0 -21 -13 -38 -29 -18 -17 -34 -30 -37 -30 -2 0 -19 -8 -36 -17 -48 -25 -222 -82 -272 -89 -23 -4 -48 -10 -55 -14 -8 -5 11 -42 64 -122 85 -126 101 -142 162 -158 24 -7 91 -32 149 -56 73 -31 111 -42 123 -36 24 12 149 20 206 13 41 -6 28 -8 -70 -12 -157 -7 -160 -20 -15 -72 204 -74 272 -103 306 -134 58 -54 38 -55 -52 -4 -47 28 -120 62 -162 76 -42 14 -97 37 -122 51 -47 25 -251 114 -323 139 -23 8 -87 26 -142 40 -180 44 -436 29 -578 -34 -47 -21 -194 -142 -240 -198 -17 -21 -54 -47 -84 -60 -75 -34 -94 -91 -46 -139 16 -16 27 -16 95 0 22 6 32 1 57 -28 35 -39 72 -53 100 -38 13 8 21 27 26 67 10 82 31 112 104 151 56 30 71 33 145 33 96 0 170 -22 243 -71 50 -33 112 -96 113 -114 0 -6 14 -27 31 -48 37 -44 35 -72 -9 -152 -30 -56 -63 -70 -88 -38 -26 34 5 161 45 182 22 12 20 32 -7 63 -17 21 -32 15 -32 -13 0 -11 -11 -39 -24 -62 -56 -97 -49 -285 19 -501 13 -44 23 -82 20 -84 -2 -3 -8 4 -11 14 -4 10 -13 34 -21 53 -36 90 -56 199 -58 310 -3 122 6 171 36 210 23 29 25 89 4 97 -26 10 -44 -15 -66 -90 -12 -39 -49 -132 -84 -206 -80 -174 -80 -175 -111 -310 -34 -153 -35 -222 -3 -256 29 -32 91 -68 147 -88 23 -8 62 -29 87 -46 76 -52 157 -88 218 -95 35 -5 57 -12 57 -20 0 -31 146 -106 287 -145 193 -55 414 -51 585 10 109 38 242 100 233 108 -3 4 -30 10 -58 13 -39 5 -26 7 53 6 170 -1 513 70 570 118 8 7 31 20 50 30 53 27 120 84 131 114 17 43 2 84 -65 183 -101 150 -142 233 -161 328 -32 157 -96 308 -140 328 -83 38 -121 -2 -213 -221 -55 -131 -86 -190 -141 -265 -74 -103 -117 -150 -128 -139 -3 4 10 23 30 42 48 47 132 171 167 249 95 206 133 313 162 454 16 81 46 208 65 282 19 74 44 173 54 220 11 47 37 144 57 215 32 115 37 142 36 235 -1 94 -5 116 -38 209 -42 116 -85 208 -125 261 -62 84 -140 166 -186 195 -79 50 -217 105 -276 110 -66 5 -172 27 -259 54 -36 11 -83 23 -105 27 -22 3 -71 23 -110 44 -38 21 -81 41 -95 45 -13 4 -36 16 -50 26 -14 10 -43 23 -65 28 -22 5 -58 15 -80 20 -48 13 -63 13 -94 0z m67 -1340 c-1 -17 -6 -33 -10 -35 -9 -6 -10 12 -2 44 9 31 15 27 12 -9z m432 -894 c26 -23 26 -85 1 -140 -21 -47 -36 -61 -74 -70 -23 -6 -33 -2 -62 30 -32 33 -49 75 -25 60 10 -6 8 13 -6 67 -5 18 12 58 30 71 20 14 114 2 136 -18z"/>
<path d="M962 4010 c-47 -11 -81 -47 -136 -144 -26 -47 -53 -90 -61 -96 -30 -25 -103 -137 -117 -179 -23 -67 5 -174 53 -204 29 -18 75 26 100 94 26 70 67 110 133 130 25 7 46 18 46 23 0 5 11 24 25 42 14 19 37 64 51 101 29 77 27 130 -8 189 -25 43 -44 53 -86 44z"/>
<path d="M1099 3953 c-1 -5 -2 -46 -3 -93 -1 -76 -5 -91 -33 -144 -18 -32 -30 -62 -28 -66 3 -5 32 0 65 11 33 10 124 32 202 49 155 32 337 89 337 105 1 11 -46 12 -199 4 l-95 -4 -97 58 c-54 32 -100 57 -104 57 -4 -1 -11 5 -16 14 -9 17 -27 22 -29 9z"/>
<path d="M1620 3776 c-161 -51 -289 -86 -370 -101 -104 -20 -346 -92 -377 -112 -28 -19 -47 -55 -85 -163 -16 -47 -58 -165 -94 -262 -120 -331 -187 -562 -182 -625 4 -45 14 -46 123 -14 39 11 117 33 175 50 58 16 244 77 413 135 170 58 352 115 405 126 177 38 290 80 357 130 34 26 68 62 79 84 18 38 61 192 91 331 8 39 18 81 21 95 6 24 5 23 -30 -10 -20 -19 -55 -40 -79 -46 -98 -28 -95 -28 -59 -5 34 22 41 38 18 47 -24 9 -56 -15 -63 -47 -4 -23 -10 -28 -22 -23 -9 3 -34 6 -57 5 -47 -2 -86 23 -89 57 -1 12 -9 30 -18 40 -46 51 -82 218 -63 300 9 39 7 39 -94 8z"/>
<path d="M2290 3623 c-25 -69 -46 -106 -69 -125 -14 -11 -25 -23 -25 -26 1 -4 -2 -17 -7 -30 -5 -12 -13 -51 -19 -85 -5 -34 -14 -78 -20 -97 -16 -56 -13 -60 27 -39 21 10 43 19 50 19 18 0 16 10 -4 32 -13 14 -17 34 -15 75 3 62 11 78 47 87 13 3 26 15 30 25 6 21 41 47 93 71 l33 15 -45 25 c-25 13 -46 28 -46 32 0 9 24 0 75 -29 22 -12 49 -23 60 -23 15 0 17 -2 6 -9 -24 -15 -5 -41 31 -41 30 1 68 19 68 33 0 3 -16 9 -35 13 -19 3 -35 10 -35 15 0 5 -7 9 -14 9 -8 0 -50 18 -92 40 -43 22 -79 40 -81 40 -2 0 -8 -12 -13 -27z"/>
<path d="M3345 3604 c-79 -7 -79 -5 -35 -96 l40 -83 138 -2 c174 -4 222 -13 339 -64 78 -34 97 -39 104 -28 30 47 -33 150 -116 192 -16 8 -84 29 -151 46 -121 31 -225 42 -319 35z"/>
<path d="M2365 3513 c-51 -13 -62 -57 -18 -68 22 -5 32 -2 46 16 30 37 16 62 -28 52z"/>
<path d="M2237 3402 c-23 -26 -22 -52 3 -52 11 0 20 5 20 11 0 5 4 8 8 5 5 -3 6 8 4 25 -5 34 -13 36 -35 11z"/>
</g>
<g id="layer103" fill="#71513b" stroke="none">
<path d="M1908 4180 c-44 -13 -125 -88 -142 -131 -10 -25 -16 -71 -16 -128 0 -49 -7 -121 -16 -161 -16 -70 -16 -74 6 -158 12 -48 29 -97 36 -109 41 -65 176 -72 276 -14 63 35 80 64 97 155 15 82 14 161 -4 226 -8 30 -15 80 -15 110 -1 61 -19 120 -47 153 l-18 21 25 -15 c37 -23 60 -78 66 -160 3 -41 10 -92 16 -114 16 -62 11 -182 -11 -269 -12 -44 -21 -91 -22 -105 -1 -25 -1 -25 -8 -3 l-6 23 -37 -28 c-21 -15 -37 -33 -38 -40 0 -23 22 -25 51 -4 15 11 32 21 37 21 4 0 27 18 50 40 44 42 70 87 92 155 7 22 22 58 32 80 17 35 19 36 13 10 -3 -16 -8 -37 -11 -46 -3 -11 11 -23 48 -40 29 -13 75 -38 103 -54 27 -17 65 -32 84 -33 47 -4 185 -70 278 -134 126 -86 323 -294 323 -340 0 -4 -31 27 -68 69 -134 151 -256 252 -404 333 -72 39 -108 49 -108 30 0 -12 -27 -26 -68 -33 -27 -6 -38 -2 -58 18 l-24 24 0 -33 c0 -19 -8 -40 -18 -49 -20 -18 -67 -23 -76 -8 -3 5 -15 7 -26 4 -51 -13 5 58 65 83 19 8 35 16 35 19 0 2 -18 14 -40 25 -22 11 -40 25 -40 30 0 12 34 0 81 -29 35 -22 79 -28 79 -12 0 5 -17 15 -37 21 -21 7 -59 25 -86 41 -26 16 -49 29 -51 29 -3 0 -12 -23 -21 -50 -9 -28 -32 -66 -50 -86 -19 -19 -34 -36 -34 -37 0 -1 -4 -13 -9 -27 -5 -14 -15 -57 -21 -95 -6 -39 -15 -85 -21 -104 -5 -19 -8 -36 -6 -39 2 -2 18 4 35 12 16 9 37 16 46 16 20 0 19 5 -6 40 -18 24 -21 37 -15 77 10 78 77 115 84 46 4 -41 -13 -73 -39 -73 -37 0 -33 -28 10 -73 23 -23 60 -71 82 -107 171 -274 223 -364 249 -432 17 -42 30 -83 30 -90 0 -23 -17 6 -44 77 -32 82 -258 465 -299 505 l-28 27 -57 -30 c-31 -17 -58 -31 -60 -32 -1 -1 -12 -35 -23 -76 -23 -83 -55 -136 -98 -162 -25 -15 -30 -25 -36 -77 -4 -33 -11 -60 -16 -60 -12 0 -11 32 1 66 14 35 8 39 -27 20 -45 -25 -181 -72 -265 -91 -53 -11 -76 -21 -71 -28 25 -43 138 -206 154 -224 11 -12 43 -29 72 -39 29 -9 96 -35 150 -57 97 -39 99 -40 152 -27 34 8 85 11 138 8 135 -9 130 -23 -6 -20 -119 3 -164 -6 -142 -27 10 -9 64 -30 205 -77 107 -36 201 -85 224 -116 29 -40 14 -44 -36 -10 -58 40 -131 76 -198 97 -30 9 -100 39 -155 66 -277 134 -430 179 -627 186 -115 4 -153 2 -240 -17 -138 -29 -195 -62 -327 -186 -63 -59 -128 -111 -150 -120 -54 -21 -71 -61 -44 -106 20 -34 30 -37 100 -22 28 5 36 2 58 -24 59 -70 118 -58 129 26 9 72 30 106 85 142 133 85 346 46 477 -87 29 -30 54 -61 54 -67 0 -6 13 -27 29 -46 25 -31 27 -38 19 -70 -13 -48 -55 -117 -78 -130 -16 -8 -24 -6 -41 11 -18 18 -20 28 -15 72 8 60 29 102 56 117 17 9 18 14 9 33 -21 40 -49 49 -49 17 0 -12 -11 -43 -26 -71 -18 -37 -27 -73 -31 -134 -8 -114 10 -218 73 -429 4 -11 2 -16 -4 -12 -13 8 -56 136 -77 231 -16 73 -19 229 -4 292 4 20 17 49 28 64 25 34 28 84 5 93 -26 10 -40 -9 -64 -92 -12 -42 -49 -133 -81 -201 -33 -68 -59 -125 -59 -128 0 -3 -6 -19 -14 -36 -23 -49 -66 -258 -66 -316 0 -29 5 -61 11 -72 13 -24 101 -82 150 -98 20 -6 64 -30 99 -52 85 -56 155 -86 218 -94 29 -4 52 -12 52 -18 0 -18 113 -87 185 -113 172 -63 325 -83 493 -65 115 12 210 41 347 106 84 41 88 43 55 45 -95 6 -88 19 10 18 183 -2 482 62 599 129 189 108 204 159 96 313 -84 120 -143 237 -160 320 -19 94 -50 186 -87 267 -25 52 -35 64 -64 73 -39 13 -80 2 -107 -28 -8 -10 -45 -86 -81 -170 -84 -195 -87 -201 -157 -297 -83 -113 -107 -138 -127 -130 -15 6 -15 8 3 20 74 52 165 197 252 404 59 142 79 202 103 320 17 80 44 200 61 266 17 66 38 147 46 180 46 187 64 258 84 325 32 111 30 238 -6 355 -61 202 -188 398 -311 481 -84 56 -228 112 -307 119 -35 3 -119 20 -188 39 -68 18 -140 37 -159 41 -19 4 -74 27 -122 51 -47 24 -90 44 -96 44 -5 0 -15 6 -21 13 -6 8 -30 19 -53 27 -24 7 -54 16 -68 20 -44 14 -94 19 -122 10z m482 -2227 c47 -27 47 -95 0 -171 -39 -63 -103 -68 -137 -10 -29 50 -34 68 -18 62 11 -4 11 2 4 33 -12 54 -11 61 11 83 25 25 100 27 140 3z"/>
<path d="M1535 3749 c-88 -28 -213 -61 -279 -75 -148 -30 -319 -80 -369 -107 -47 -26 -54 -40 -132 -262 -35 -99 -86 -245 -115 -325 -100 -282 -149 -487 -120 -505 6 -4 32 0 58 8 26 8 97 29 157 47 201 58 398 122 576 185 97 35 218 73 270 85 206 48 331 91 395 136 33 23 68 54 77 67 17 26 87 277 105 377 6 30 14 64 17 75 5 13 -5 7 -28 -17 -31 -32 -43 -40 -59 -38 -2 0 -29 -8 -60 -19 -89 -30 -220 -13 -234 31 -3 11 -3 22 0 25 3 3 -5 19 -18 34 -50 60 -82 204 -63 292 6 28 5 37 -5 36 -7 0 -85 -23 -173 -50z"/>
</g>
<g id="layer104" fill="#986f30" stroke="none">
<path d="M1908 4180 c-44 -13 -125 -88 -142 -131 -10 -25 -16 -71 -16 -128 0 -49 -7 -121 -16 -161 -16 -70 -16 -74 6 -158 12 -48 29 -97 36 -109 41 -65 176 -72 276 -14 63 35 80 64 97 155 15 82 14 161 -4 226 -8 30 -15 80 -15 110 -1 61 -19 120 -47 153 l-18 21 25 -15 c37 -23 60 -78 66 -160 3 -41 10 -92 16 -114 16 -62 11 -182 -11 -269 -12 -44 -21 -91 -22 -105 -1 -25 -1 -25 -8 -3 l-6 23 -37 -28 c-21 -15 -37 -33 -38 -40 0 -23 22 -25 51 -4 15 11 32 21 37 21 4 0 27 18 50 40 44 42 70 87 92 155 7 22 22 58 32 80 17 35 19 36 13 10 -3 -16 -8 -37 -11 -46 -3 -11 11 -23 48 -40 29 -13 75 -38 103 -54 27 -17 65 -32 84 -33 47 -4 185 -70 278 -134 126 -86 323 -294 323 -340 0 -4 -31 27 -68 69 -134 151 -256 252 -404 333 -72 39 -108 49 -108 30 0 -12 -27 -26 -68 -33 -27 -6 -38 -2 -58 18 l-24 24 0 -33 c0 -19 -8 -40 -18 -49 -20 -18 -67 -23 -76 -8 -3 5 -15 7 -25 4 -15 -4 -20 0 -18 15 1 14 21 33 60 56 l59 35 -41 20 c-23 12 -41 26 -41 31 0 15 9 12 67 -20 51 -29 93 -39 93 -22 0 5 -19 15 -41 22 -23 8 -62 27 -86 43 -25 15 -46 27 -48 25 -1 -2 -10 -24 -20 -51 -10 -26 -35 -70 -56 -99 -21 -28 -41 -67 -45 -87 -12 -74 -33 -167 -40 -185 -6 -16 -4 -18 12 -12 10 5 33 13 49 20 17 6 32 11 33 13 2 1 -6 15 -18 31 -19 26 -22 38 -16 85 6 48 11 57 36 67 37 15 50 7 50 -31 0 -41 -17 -69 -41 -69 -37 0 -33 -28 10 -73 23 -23 60 -71 82 -107 171 -274 223 -364 249 -432 17 -42 30 -83 30 -90 0 -23 -17 6 -44 77 -32 82 -258 465 -299 505 l-28 27 -57 -30 c-31 -17 -58 -31 -60 -32 -1 -1 -12 -35 -23 -76 -23 -83 -55 -136 -98 -162 -25 -15 -30 -25 -36 -77 -4 -33 -11 -60 -16 -60 -12 0 -11 32 1 66 14 35 8 39 -27 20 -45 -25 -181 -72 -265 -91 -53 -11 -76 -21 -71 -28 25 -43 138 -206 154 -224 11 -12 43 -29 72 -39 29 -9 96 -35 150 -57 97 -39 99 -40 152 -27 34 8 85 11 138 8 135 -9 130 -23 -6 -20 -119 3 -164 -6 -142 -27 10 -9 64 -30 205 -77 107 -36 201 -85 224 -116 29 -40 14 -44 -36 -10 -58 40 -131 76 -198 97 -30 9 -100 39 -155 66 -277 134 -430 179 -627 186 -115 4 -153 2 -240 -17 -138 -29 -195 -62 -327 -186 -63 -59 -128 -111 -150 -120 -54 -21 -71 -61 -44 -106 20 -34 30 -37 100 -22 28 5 36 2 58 -24 59 -70 118 -58 129 26 9 72 30 106 85 142 133 85 346 46 477 -87 29 -30 54 -61 54 -67 0 -6 13 -27 29 -46 25 -31 27 -38 19 -70 -13 -48 -55 -117 -78 -130 -16 -8 -24 -6 -41 11 -18 18 -20 28 -15 72 8 60 29 102 56 117 17 9 18 14 9 33 -21 40 -49 49 -49 17 0 -12 -11 -43 -26 -71 -18 -37 -27 -73 -31 -134 -8 -114 10 -218 73 -429 4 -11 2 -16 -4 -12 -13 8 -56 136 -77 231 -16 73 -19 229 -4 292 4 20 17 49 28 64 25 34 28 84 5 93 -26 10 -40 -9 -64 -92 -12 -42 -49 -133 -81 -201 -33 -68 -59 -125 -59 -128 0 -3 -6 -19 -14 -36 -23 -49 -66 -258 -66 -316 0 -29 5 -61 11 -72 13 -24 101 -82 150 -98 20 -6 64 -30 99 -52 85 -56 155 -86 218 -94 29 -4 52 -12 52 -18 0 -18 113 -87 185 -113 172 -63 325 -83 493 -65 115 12 210 41 347 106 84 41 88 43 55 45 -95 6 -88 19 10 18 183 -2 482 62 599 129 189 108 204 159 96 313 -84 120 -143 237 -160 320 -19 94 -50 186 -87 267 -25 52 -35 64 -64 73 -39 13 -80 2 -107 -28 -8 -10 -45 -86 -81 -170 -84 -195 -87 -201 -157 -297 -83 -113 -107 -138 -127 -130 -15 6 -15 8 3 20 74 52 165 197 252 404 59 142 79 202 103 320 17 80 44 200 61 266 17 66 38 147 46 180 46 187 64 258 84 325 32 111 30 238 -6 355 -61 202 -188 398 -311 481 -84 56 -228 112 -307 119 -35 3 -119 20 -188 39 -68 18 -140 37 -159 41 -19 4 -74 27 -122 51 -47 24 -90 44 -96 44 -5 0 -15 6 -21 13 -6 8 -30 19 -53 27 -24 7 -54 16 -68 20 -44 14 -94 19 -122 10z m482 -2227 c47 -27 47 -95 0 -171 -39 -63 -103 -68 -137 -10 -29 50 -34 68 -18 62 11 -4 11 2 4 33 -12 54 -11 61 11 83 25 25 100 27 140 3z"/>
<path d="M1695 3792 c-11 -2 -94 -26 -185 -53 -91 -26 -210 -57 -266 -68 -118 -24 -327 -86 -366 -109 -30 -17 -64 -87 -102 -204 -13 -40 -55 -158 -93 -263 -82 -221 -162 -483 -169 -552 -7 -70 3 -80 62 -60 27 9 94 30 149 46 230 67 293 87 550 176 149 51 308 100 355 110 227 46 381 119 427 203 22 39 57 165 97 346 l24 109 -34 -37 c-18 -20 -38 -36 -43 -36 -6 0 -13 0 -16 0 -3 0 -29 -9 -57 -19 -53 -19 -130 -22 -191 -6 -29 8 -47 31 -47 61 0 10 -8 27 -19 38 -22 25 -59 130 -67 189 -3 23 -1 62 5 87 5 24 9 45 8 45 -1 1 -11 0 -22 -3z"/>
</g>
<g id="layer105" fill="#67608f" stroke="none">
<path d="M1908 4180 c-44 -13 -125 -88 -142 -131 -10 -25 -16 -71 -16 -128 0 -49 -7 -121 -16 -161 -16 -70 -16 -74 6 -158 12 -48 29 -97 36 -109 41 -65 176 -72 276 -14 63 35 80 64 97 155 15 82 14 161 -4 226 -8 30 -15 80 -15 110 -1 61 -19 120 -47 153 l-18 21 25 -15 c37 -23 60 -78 66 -160 3 -41 10 -92 16 -114 16 -62 11 -182 -11 -269 -12 -44 -21 -91 -22 -105 -1 -25 -1 -25 -8 -3 l-6 23 -37 -28 c-21 -15 -37 -33 -38 -40 0 -23 22 -25 51 -4 15 11 32 21 37 21 4 0 27 18 50 40 44 42 70 87 92 155 7 22 22 58 32 80 17 35 19 36 13 10 -3 -16 -8 -37 -11 -46 -3 -11 11 -23 48 -40 29 -13 75 -38 103 -54 27 -17 65 -32 84 -33 47 -4 185 -70 278 -134 126 -86 323 -294 323 -340 0 -4 -31 27 -68 69 -134 151 -256 252 -404 333 -72 39 -108 49 -108 30 0 -12 -27 -26 -68 -33 -27 -6 -38 -2 -58 18 l-24 24 0 -33 c0 -19 -8 -40 -18 -49 -20 -18 -67 -23 -76 -8 -3 5 -15 7 -25 4 -15 -4 -20 0 -18 15 1 14 21 32 59 55 l58 34 -45 24 c-60 32 -40 47 21 16 47 -23 115 -45 103 -33 -19 19 -179 93 -179 83 0 -23 -49 -117 -75 -144 -27 -30 -32 -45 -62 -189 l-19 -92 45 16 c26 9 48 18 50 19 3 2 -6 14 -18 27 -20 21 -22 32 -18 83 3 32 6 59 6 59 1 1 14 7 30 14 37 15 51 7 51 -31 0 -41 -17 -69 -41 -69 -37 0 -33 -28 10 -73 23 -23 60 -71 82 -107 171 -274 223 -364 249 -432 17 -42 30 -83 30 -90 0 -23 -17 6 -44 77 -32 82 -258 465 -299 505 l-28 27 -57 -30 c-31 -17 -58 -31 -60 -32 -1 -1 -12 -35 -23 -76 -23 -83 -55 -136 -98 -162 -25 -15 -30 -25 -36 -77 -4 -33 -11 -60 -16 -60 -12 0 -11 32 1 66 14 35 8 39 -27 20 -45 -25 -181 -72 -265 -91 -53 -11 -76 -21 -71 -28 25 -43 138 -206 154 -224 11 -12 43 -29 72 -39 29 -9 96 -35 150 -57 97 -39 99 -40 152 -27 34 8 85 11 138 8 135 -9 130 -23 -6 -20 -119 3 -164 -6 -142 -27 10 -9 64 -30 205 -77 107 -36 201 -85 224 -116 29 -40 14 -44 -36 -10 -58 40 -131 76 -198 97 -30 9 -100 39 -155 66 -277 134 -430 179 -627 186 -115 4 -153 2 -240 -17 -138 -29 -195 -62 -327 -186 -63 -59 -128 -111 -150 -120 -54 -21 -71 -61 -44 -106 20 -34 30 -37 100 -22 28 5 36 2 58 -24 59 -70 118 -58 129 26 9 72 30 106 85 142 133 85 346 46 477 -87 29 -30 54 -61 54 -67 0 -6 13 -27 29 -46 25 -31 27 -38 19 -70 -13 -48 -55 -117 -78 -130 -16 -8 -24 -6 -41 11 -18 18 -20 28 -15 72 8 60 29 102 56 117 17 9 18 14 9 33 -21 40 -49 49 -49 17 0 -12 -11 -43 -26 -71 -18 -37 -27 -73 -31 -134 -8 -114 10 -218 73 -429 4 -11 2 -16 -4 -12 -13 8 -56 136 -77 231 -16 73 -19 229 -4 292 4 20 17 49 28 64 25 34 28 84 5 93 -26 10 -40 -9 -64 -92 -12 -42 -49 -133 -81 -201 -33 -68 -59 -125 -59 -128 0 -3 -6 -19 -14 -36 -23 -49 -66 -258 -66 -316 0 -29 5 -61 11 -72 13 -24 101 -82 150 -98 20 -6 64 -30 99 -52 85 -56 155 -86 218 -94 29 -4 52 -12 52 -18 0 -18 113 -87 185 -113 172 -63 325 -83 493 -65 115 12 210 41 347 106 84 41 88 43 55 45 -95 6 -88 19 10 18 183 -2 482 62 599 129 189 108 204 159 96 313 -84 120 -143 237 -160 320 -19 94 -50 186 -87 267 -25 52 -35 64 -64 73 -39 13 -80 2 -107 -28 -8 -10 -45 -86 -81 -170 -84 -195 -87 -201 -157 -297 -83 -113 -107 -138 -127 -130 -15 6 -15 8 3 20 74 52 165 197 252 404 59 142 79 202 103 320 17 80 44 200 61 266 17 66 38 147 46 180 46 187 64 258 84 325 32 111 30 238 -6 355 -61 202 -188 398 -311 481 -84 56 -228 112 -307 119 -35 3 -119 20 -188 39 -68 18 -140 37 -159 41 -19 4 -74 27 -122 51 -47 24 -90 44 -96 44 -5 0 -15 6 -21 13 -6 8 -30 19 -53 27 -24 7 -54 16 -68 20 -44 14 -94 19 -122 10z m482 -2227 c47 -27 47 -95 0 -171 -39 -63 -103 -68 -137 -10 -29 50 -34 68 -18 62 11 -4 11 2 4 33 -12 54 -11 61 11 83 25 25 100 27 140 3z"/>
<path d="M943 4003 c-26 -5 -79 -63 -100 -107 -23 -51 -55 -100 -115 -178 -67 -86 -88 -132 -88 -188 0 -44 41 -137 65 -146 29 -11 72 34 94 97 11 33 30 69 43 80 21 18 100 59 114 58 8 0 58 71 79 110 48 93 51 166 11 237 -22 40 -46 49 -103 37z"/>
<path d="M1094 3947 c-3 -8 -1 -33 5 -56 12 -53 -7 -132 -45 -192 -14 -22 -23 -43 -20 -46 3 -3 49 6 103 20 54 14 141 33 193 42 52 10 115 25 140 35 25 10 75 27 113 40 37 12 64 26 61 32 -7 11 -195 1 -230 -12 -22 -9 -121 26 -152 53 -10 8 -42 27 -72 43 -30 16 -61 35 -68 41 -17 16 -21 16 -28 0z"/>
<path d="M1530 3744 c-80 -24 -206 -57 -280 -73 -189 -40 -362 -96 -386 -124 -32 -37 -42 -61 -103 -235 -33 -92 -82 -232 -111 -312 -64 -179 -128 -395 -135 -458 -8 -68 2 -79 57 -60 23 9 93 30 153 48 184 53 421 129 605 195 96 34 211 70 255 80 128 28 317 86 360 111 69 39 112 90 134 157 20 58 91 360 91 382 0 6 -13 -4 -28 -22 -17 -20 -40 -34 -61 -38 -18 -3 -48 -12 -65 -19 -27 -11 -90 -14 -173 -7 -22 2 -53 40 -53 64 0 13 -9 32 -19 41 -11 10 -32 56 -47 103 -22 71 -26 94 -20 148 6 58 5 65 -11 64 -10 0 -83 -20 -163 -45z"/>
<path d="M3358 3601 c-36 -3 -69 -9 -72 -12 -3 -3 10 -41 30 -85 l36 -80 62 4 c35 2 115 -1 179 -7 96 -8 132 -17 204 -46 48 -20 92 -41 97 -46 17 -16 35 -10 42 15 11 45 -48 141 -106 171 -41 21 -286 82 -350 87 -30 3 -85 2 -122 -1z"/>
<path d="M2472 3543 c-37 -7 -24 -37 19 -41 25 -2 40 3 54 18 14 15 15 20 4 20 -8 0 -23 2 -34 4 -11 2 -30 2 -43 -1z"/>
<path d="M2353 3505 c-41 -18 -45 -50 -7 -58 28 -5 67 27 62 52 -4 21 -18 22 -55 6z"/>
<path d="M2000 3433 c-19 -7 -40 -33 -40 -50 0 -19 12 -16 48 11 25 18 29 26 20 33 -7 6 -20 8 -28 6z"/>
<path d="M2243 3403 c-25 -25 -29 -38 -12 -49 17 -10 41 21 37 47 l-3 24 -22 -22z"/>
</g>
<g id="layer106" fill="#8c725e" stroke="none">
<path d="M1530 3744 c-80 -24 -206 -57 -280 -73 -189 -40 -362 -96 -386 -124 -32 -37 -42 -61 -103 -235 -33 -92 -82 -232 -111 -312 -64 -179 -128 -395 -135 -458 -8 -68 2 -79 57 -60 23 9 93 30 153 48 184 53 421 129 605 195 96 34 211 70 255 80 128 28 317 86 360 111 69 39 112 90 134 157 20 58 91 360 91 382 0 6 -13 -4 -28 -22 -32 -37 -114 -64 -207 -67 -101 -4 -145 18 -145 72 0 10 -9 27 -19 36 -11 10 -32 56 -47 103 -22 71 -26 94 -20 148 6 58 5 65 -11 64 -10 0 -83 -20 -163 -45z"/>
<path d="M2300 3637 c0 -23 -49 -117 -75 -144 -27 -30 -32 -45 -62 -190 l-19 -91 40 15 c53 21 51 18 32 49 -13 19 -17 40 -13 81 5 56 13 68 55 79 12 3 22 14 22 23 0 11 24 31 60 53 l60 35 -45 24 c-60 32 -40 47 21 16 47 -23 115 -45 103 -33 -19 19 -179 93 -179 83z"/>
</g>
<g id="layer107" fill="#b78b2f" stroke="none">
<path d="M1530 3744 c-80 -24 -206 -57 -280 -73 -189 -40 -362 -96 -386 -124 -32 -37 -42 -61 -103 -235 -33 -92 -82 -232 -111 -312 -64 -179 -128 -395 -135 -458 -8 -68 2 -79 57 -60 23 9 93 30 153 48 184 53 421 129 605 195 96 34 211 70 255 80 137 29 336 93 375 120 69 48 98 84 119 148 19 59 73 283 86 357 l6 35 -28 -32 c-33 -37 -116 -64 -208 -67 -101 -4 -145 18 -145 72 0 10 -9 27 -19 36 -11 10 -32 56 -47 103 -22 71 -26 94 -20 148 6 58 5 65 -11 64 -10 0 -83 -20 -163 -45z"/>
<path d="M2300 3636 c0 -22 -49 -116 -75 -143 -27 -30 -32 -46 -62 -189 l-19 -91 41 16 c22 8 42 16 44 17 1 2 -4 13 -13 26 -24 34 -21 123 4 148 11 11 29 20 40 20 12 0 20 7 20 18 0 17 36 45 93 74 l29 14 -46 25 c-61 32 -42 47 20 16 48 -23 115 -45 103 -32 -18 17 -179 91 -179 81z"/>
</g>
<g id="layer108" fill="#fdbe11" stroke="none">
<path d="M1516 3740 c-88 -27 -207 -59 -265 -70 -138 -28 -358 -94 -382 -116 -29 -26 -45 -63 -121 -279 -134 -383 -187 -544 -213 -650 -29 -113 -28 -161 3 -152 45 15 189 58 297 90 66 20 201 63 300 97 328 113 415 140 493 156 42 9 127 32 189 51 146 46 216 99 252 188 12 32 25 70 27 84 3 14 16 69 29 121 13 52 26 109 30 125 3 17 9 39 12 50 5 16 -1 13 -30 -12 -36 -32 -74 -49 -84 -39 -3 3 -18 -1 -34 -9 -19 -11 -51 -14 -103 -11 -93 4 -134 26 -127 69 1 5 -8 20 -19 34 -11 14 -32 62 -46 107 -21 66 -25 93 -21 149 5 59 4 67 -11 66 -9 0 -89 -22 -176 -49z"/>
<path d="M2292 3606 c-7 -22 -33 -71 -58 -107 -36 -54 -47 -81 -58 -145 -8 -44 -17 -91 -21 -106 -8 -33 -8 -33 39 -13 35 15 36 17 21 38 -23 33 -20 122 5 147 11 11 29 20 40 20 13 0 20 7 20 19 0 18 65 71 87 71 29 0 20 21 -17 40 -22 11 -40 25 -40 30 0 17 34 11 75 -15 22 -13 51 -24 65 -24 19 0 14 5 -22 19 -26 11 -65 30 -86 44 l-38 24 -12 -42z"/>
</g>
<g id="layer109" fill="#908ba9" stroke="none">
<path d="M1908 4180 c-41 -12 -116 -80 -138 -125 -15 -32 -20 -62 -20 -131 0 -49 -7 -122 -15 -163 -15 -70 -15 -77 5 -155 12 -44 27 -92 33 -106 33 -70 181 -81 281 -20 60 37 79 69 96 159 14 75 12 147 -5 211 -8 30 -15 80 -15 111 0 63 -13 110 -44 154 l-21 30 25 -16 c36 -22 59 -76 66 -150 3 -35 12 -101 20 -146 17 -88 8 -190 -22 -275 -8 -22 -14 -56 -14 -75 l0 -35 33 27 c43 37 84 99 101 154 8 25 24 66 35 91 18 38 21 40 17 15 -3 -16 -7 -37 -11 -47 -4 -11 0 -18 13 -22 11 -4 56 -26 101 -50 45 -25 100 -47 122 -51 62 -11 223 -96 321 -170 97 -73 230 -210 260 -268 11 -22 18 -40 16 -42 -2 -2 -26 23 -53 56 -121 147 -347 328 -467 374 -45 16 -47 16 -66 -3 -10 -10 -37 -23 -58 -27 -34 -6 -41 -4 -61 20 l-23 26 0 -34 c0 -50 -27 -71 -85 -64 l-45 6 0 -35 c0 -46 -16 -74 -41 -74 -37 0 -31 -27 17 -79 42 -45 245 -364 294 -461 28 -56 70 -180 61 -180 -4 0 -25 42 -46 93 -21 50 -56 121 -78 157 -22 36 -71 118 -109 182 -38 64 -85 134 -103 155 l-33 38 -59 -29 -60 -28 -23 -79 c-25 -86 -67 -155 -104 -169 -20 -7 -24 -18 -30 -69 -4 -34 -11 -61 -16 -61 -13 0 -13 47 1 72 16 29 4 33 -33 10 -35 -21 -239 -87 -300 -97 l-37 -6 17 -27 c58 -92 139 -209 152 -219 8 -7 33 -18 55 -24 22 -7 89 -32 148 -57 100 -41 112 -44 147 -33 49 15 194 13 245 -3 36 -12 27 -13 -81 -8 -84 3 -127 1 -143 -8 -13 -6 -19 -15 -15 -20 5 -4 77 -31 159 -60 83 -29 168 -61 190 -72 47 -24 95 -66 95 -85 0 -18 -4 -17 -53 14 -55 35 -142 77 -192 93 -22 7 -91 37 -154 67 -294 141 -474 193 -662 193 -145 0 -287 -28 -371 -72 -33 -17 -106 -77 -171 -138 -70 -66 -128 -112 -149 -119 -48 -16 -66 -56 -44 -99 22 -42 25 -43 87 -27 30 8 55 15 57 15 1 0 2 -6 2 -14 0 -23 59 -66 90 -66 36 0 46 14 55 75 10 72 28 99 90 138 94 59 222 58 348 -2 80 -38 146 -96 176 -155 13 -25 32 -53 41 -61 15 -14 16 -22 8 -53 -16 -58 -46 -110 -74 -129 -26 -16 -27 -16 -45 6 -34 42 -15 148 32 183 24 18 26 24 17 42 -20 39 -48 48 -48 16 0 -12 -12 -44 -26 -71 -50 -100 -42 -274 22 -487 32 -105 26 -129 -9 -37 -47 125 -67 226 -67 332 1 114 10 165 39 204 24 33 28 84 6 93 -24 9 -42 -20 -69 -107 -14 -45 -46 -125 -72 -177 -25 -52 -55 -117 -66 -145 -31 -78 -69 -242 -75 -325 -7 -98 7 -115 135 -177 54 -25 115 -58 137 -73 68 -46 125 -71 185 -81 43 -7 65 -17 92 -42 75 -70 263 -139 435 -158 190 -21 369 13 573 109 l85 40 -40 2 c-22 1 -51 5 -65 9 -24 7 -24 8 7 12 18 3 60 2 93 -2 34 -4 76 -3 93 2 18 4 91 18 162 29 130 22 284 67 314 94 9 7 35 23 57 34 23 12 58 37 78 55 30 29 36 41 36 76 0 48 -12 74 -74 163 -89 128 -133 219 -151 306 -27 137 -90 299 -128 330 -29 24 -70 24 -106 0 -29 -19 -46 -49 -106 -188 -85 -198 -89 -205 -159 -300 -79 -108 -104 -133 -124 -125 -15 6 -15 8 3 20 37 26 57 49 116 137 61 90 191 379 211 468 86 379 112 490 123 520 8 19 19 62 25 95 6 33 30 128 52 210 53 195 55 291 9 432 -70 214 -197 403 -320 477 -82 50 -224 106 -268 106 -42 1 -138 21 -313 68 -75 20 -148 49 -210 81 -118 63 -158 81 -177 81 -8 0 -22 4 -31 9 -27 13 -95 20 -124 11z m483 -2227 c39 -23 45 -54 25 -119 -26 -81 -84 -122 -137 -94 -20 11 -60 80 -58 102 0 10 2 10 6 1 12 -31 20 -9 11 32 -8 37 -7 51 6 70 14 21 24 25 67 25 30 0 63 -7 80 -17z"/>
<path d="M942 4003 c-32 -6 -95 -89 -136 -179 -8 -18 -29 -49 -48 -70 -86 -99 -118 -159 -118 -221 0 -38 39 -135 59 -147 22 -14 70 27 91 78 11 28 26 62 33 75 13 25 125 94 139 85 4 -3 8 0 8 7 0 6 13 26 29 44 63 72 91 207 57 273 -30 59 -49 67 -114 55z"/>
<path d="M1094 3946 c-3 -8 -1 -31 5 -51 14 -51 -1 -124 -40 -191 -34 -60 -30 -64 38 -40 22 8 102 26 179 41 76 15 168 37 204 50 36 13 89 31 118 40 29 9 49 21 46 27 -7 10 -148 3 -218 -12 -49 -11 -87 3 -194 69 -46 28 -88 51 -93 51 -5 0 -9 4 -9 9 0 16 -31 21 -36 7z"/>
<path d="M3292 3592 c-9 -6 -3 -27 24 -88 l36 -79 142 -1 c166 -1 219 -11 339 -64 50 -22 93 -38 96 -35 13 14 3 74 -18 108 -37 59 -78 84 -211 123 -110 32 -141 37 -260 41 -74 2 -141 0 -148 -5z"/>
<path d="M2455 3530 c-21 -33 61 -42 90 -10 18 20 17 20 -33 20 -28 0 -54 -4 -57 -10z"/>
<path d="M2360 3507 c-47 -16 -49 -51 -4 -55 24 -2 33 2 44 23 18 34 4 46 -40 32z"/>
<path d="M2080 3467 c-30 -27 -33 -53 -5 -49 28 5 55 32 55 54 0 24 -19 22 -50 -5z"/>
<path d="M2000 3433 c-19 -6 -40 -33 -40 -50 0 -15 25 -7 57 18 17 13 20 19 10 27 -6 5 -19 7 -27 5z"/>
<path d="M2242 3402 c-23 -23 -25 -43 -5 -49 15 -5 35 32 31 55 -3 15 -6 14 -26 -6z"/>
</g>
<g id="layer110" fill="#b8b6c5" stroke="none">
<path d="M1888 4172 c-27 -11 -97 -80 -115 -115 -12 -22 -20 -70 -25 -152 -4 -66 -10 -150 -14 -188 -8 -86 24 -202 68 -244 27 -26 35 -28 113 -28 74 1 88 4 131 31 69 42 90 78 104 181 10 71 11 101 0 153 -6 36 -15 103 -20 150 -7 88 -18 119 -53 158 -23 25 -19 27 17 11 31 -14 56 -75 62 -149 3 -30 12 -92 21 -137 14 -70 14 -96 4 -168 -6 -46 -18 -103 -26 -126 -8 -23 -15 -53 -15 -66 l0 -25 39 31 c39 31 65 77 122 214 35 86 47 96 24 22 -8 -27 -13 -50 -12 -50 1 -1 22 -10 47 -21 24 -10 68 -33 96 -50 28 -17 71 -34 95 -38 62 -10 211 -87 305 -156 97 -73 225 -199 265 -262 54 -84 26 -71 -60 27 -120 138 -259 248 -410 324 l-63 32 -23 -21 c-14 -13 -42 -24 -68 -27 -38 -5 -47 -2 -61 18 -16 21 -17 22 -14 4 6 -26 -17 -72 -39 -79 -22 -7 -64 -3 -81 8 -9 5 -11 -4 -10 -33 1 -44 -15 -71 -42 -71 -34 0 -27 -25 22 -81 41 -48 130 -186 261 -404 27 -46 74 -156 92 -214 5 -16 3 -22 -5 -19 -7 2 -27 42 -46 88 -38 94 -253 458 -297 501 l-27 28 -59 -27 c-52 -24 -60 -31 -66 -61 -15 -79 -49 -147 -95 -193 -40 -39 -48 -54 -54 -97 -6 -48 -17 -63 -30 -42 -3 5 1 27 9 50 l14 41 -37 -19 c-49 -24 -246 -88 -299 -96 l-41 -6 74 -112 c40 -62 81 -120 90 -129 9 -10 42 -25 73 -34 31 -9 98 -34 150 -56 88 -37 97 -39 132 -28 45 15 235 10 264 -8 16 -9 -7 -11 -117 -12 -75 0 -139 -4 -142 -9 -6 -10 4 -14 164 -70 209 -73 280 -114 280 -162 0 -20 -1 -21 -17 -7 -33 29 -187 106 -258 128 -38 13 -86 33 -105 45 -19 12 -75 38 -125 59 -49 21 -99 41 -110 46 -66 29 -113 44 -220 71 -151 37 -292 40 -435 8 -156 -34 -196 -58 -370 -224 -41 -40 -86 -76 -100 -80 -14 -4 -33 -14 -42 -23 -24 -21 -23 -77 1 -101 17 -17 25 -18 53 -9 69 21 76 21 83 -2 8 -25 61 -60 92 -60 26 0 39 21 46 75 5 44 36 115 50 115 4 0 23 11 40 24 93 70 283 55 411 -34 48 -33 116 -104 116 -123 1 -6 14 -27 29 -45 24 -28 27 -39 21 -65 -14 -64 -68 -147 -95 -147 -21 0 -48 39 -47 69 1 52 23 113 49 137 25 23 25 25 9 49 -19 30 -36 33 -36 6 0 -10 -12 -45 -26 -76 -50 -109 -38 -292 35 -523 23 -74 7 -79 -21 -7 -46 117 -68 227 -68 340 0 125 8 172 39 211 11 15 21 40 21 55 0 24 -4 29 -24 29 -25 0 -32 -15 -71 -139 -9 -30 -34 -89 -55 -131 -64 -127 -90 -199 -120 -336 -31 -137 -37 -203 -20 -233 12 -24 97 -78 158 -101 27 -10 76 -37 110 -60 70 -46 145 -76 215 -85 29 -4 47 -11 47 -19 0 -15 52 -51 128 -90 29 -14 105 -40 170 -57 102 -26 134 -30 249 -30 73 0 161 5 195 11 64 12 228 72 307 114 l44 23 -58 6 c-31 3 -60 8 -63 11 -15 15 16 18 95 10 72 -8 105 -7 178 7 50 10 130 25 180 34 148 28 299 97 384 175 31 29 33 35 29 80 -4 39 -18 68 -71 147 -98 147 -136 222 -153 304 -19 95 -68 243 -97 294 -15 27 -34 44 -60 53 -35 14 -39 13 -74 -11 -34 -22 -46 -43 -108 -193 -45 -108 -89 -195 -122 -243 -29 -42 -64 -92 -77 -111 -34 -51 -62 -73 -82 -66 -15 6 -12 11 17 35 54 45 163 217 207 327 22 54 53 128 70 164 16 36 34 95 41 132 17 99 89 405 111 473 10 33 26 98 35 144 10 47 30 128 47 180 23 73 31 123 35 206 5 103 3 117 -26 210 -74 241 -206 428 -360 509 -96 50 -194 86 -239 86 -39 0 -127 19 -302 65 -71 19 -141 47 -219 87 -62 33 -139 68 -170 79 -56 18 -141 24 -173 11z m512 -2222 c36 -26 40 -72 11 -137 -27 -59 -55 -83 -96 -83 -29 0 -40 6 -65 42 -31 43 -43 91 -16 69 11 -9 12 -6 8 14 -2 14 -8 22 -13 19 -20 -12 5 63 29 84 21 20 32 23 69 18 24 -3 57 -15 73 -26z"/>
<path d="M948 4003 c-29 -5 -78 -58 -104 -115 -21 -46 -61 -106 -117 -174 -70 -85 -91 -134 -83 -198 7 -52 42 -126 62 -133 23 -8 72 47 94 106 25 68 47 92 110 119 134 58 205 264 126 366 -26 35 -33 37 -88 29z"/>
<path d="M1097 3953 c-2 -4 -2 -19 1 -33 13 -71 3 -134 -31 -202 -19 -37 -32 -68 -28 -68 4 0 27 7 52 15 24 8 100 27 169 41 185 39 187 39 295 78 l100 36 -125 -6 c-166 -9 -160 -9 -211 15 -52 25 -180 101 -202 119 -8 7 -17 9 -20 5z"/>
<path d="M3308 3593 c-16 -2 -28 -6 -28 -7 0 -2 17 -39 38 -82 l37 -79 150 -1 c166 -1 216 -11 342 -69 39 -18 74 -30 77 -27 15 15 3 73 -24 113 -39 60 -80 81 -241 123 -114 30 -150 36 -230 35 -52 -1 -106 -4 -121 -6z"/>
<path d="M2343 3500 c-31 -12 -29 -38 2 -46 28 -7 50 7 58 36 4 16 0 20 -16 19 -12 0 -32 -4 -44 -9z"/>
<path d="M2076 3459 c-28 -33 -27 -52 2 -42 28 10 52 35 52 55 0 27 -25 22 -54 -13z"/>
<path d="M2000 3433 c-16 -6 -40 -32 -40 -45 0 -14 31 -8 56 11 18 14 21 21 11 29 -6 5 -19 7 -27 5z"/>
<path d="M2229 3389 c-16 -31 7 -52 27 -25 8 11 14 26 14 33 0 21 -28 15 -41 -8z"/>
</g>
<g id="layer111" fill="#dbdbdb" stroke="none">
<path d="M1875 4162 c-48 -30 -103 -98 -115 -143 -6 -23 -10 -79 -9 -123 2 -45 -1 -87 -5 -95 -5 -7 -11 -42 -14 -77 -7 -87 28 -210 70 -251 28 -26 34 -28 114 -27 71 2 91 6 128 28 65 38 85 73 104 177 15 85 15 97 -1 174 -9 45 -17 105 -17 131 0 66 -16 117 -46 154 -28 33 -27 35 10 19 34 -16 56 -76 66 -179 5 -47 14 -101 19 -120 16 -52 13 -114 -10 -215 -11 -49 -23 -105 -26 -124 l-6 -35 40 32 c42 33 72 85 119 207 32 81 50 106 39 55 -4 -19 -11 -44 -15 -54 -6 -17 5 -25 74 -59 45 -21 88 -44 96 -51 8 -8 34 -16 58 -20 90 -13 251 -104 387 -217 71 -58 178 -178 203 -225 31 -59 1 -40 -73 46 -120 140 -263 253 -414 329 l-63 32 -23 -21 c-14 -13 -42 -24 -68 -27 -38 -5 -47 -2 -62 18 l-17 24 6 -26 c9 -40 -33 -81 -77 -76 -18 2 -38 7 -45 11 -9 5 -11 -4 -10 -33 1 -42 -14 -71 -39 -71 -32 0 -23 -32 29 -94 67 -82 270 -414 307 -503 36 -89 46 -126 30 -121 -7 2 -29 44 -49 94 -20 49 -56 121 -79 159 -24 39 -76 123 -115 189 -39 65 -84 131 -99 146 l-29 28 -58 -26 c-56 -26 -58 -28 -70 -82 -18 -81 -47 -136 -91 -174 -32 -27 -41 -43 -50 -89 -7 -32 -15 -57 -20 -57 -17 0 -19 20 -5 59 l13 40 -31 -16 c-48 -25 -247 -90 -298 -98 l-46 -7 82 -122 c74 -108 88 -123 127 -138 24 -9 97 -38 163 -64 98 -39 122 -45 137 -36 26 17 224 14 269 -3 32 -12 23 -14 -107 -14 -199 -1 -198 -6 17 -80 189 -64 254 -99 280 -149 14 -28 6 -40 -15 -22 -40 34 -170 97 -255 125 -30 10 -86 35 -125 56 -100 54 -283 127 -405 161 -157 44 -324 49 -477 14 -62 -14 -125 -32 -141 -40 -42 -22 -181 -136 -230 -190 -23 -25 -66 -59 -95 -74 -47 -25 -52 -31 -55 -64 -5 -53 25 -81 70 -66 68 21 76 21 83 -1 7 -22 63 -61 88 -61 26 0 47 30 47 68 0 37 35 122 51 122 4 0 28 14 51 30 76 54 223 51 343 -5 64 -31 163 -117 171 -150 3 -13 19 -35 34 -50 24 -23 28 -33 23 -59 -13 -69 -67 -156 -97 -156 -22 0 -49 38 -48 69 1 52 23 113 49 137 25 23 25 25 9 49 -21 32 -31 32 -34 0 -1 -14 -14 -49 -29 -78 -49 -96 -35 -293 36 -512 10 -33 17 -62 16 -64 -9 -9 -24 14 -43 66 -75 210 -87 451 -26 534 13 18 24 46 24 61 0 23 -4 28 -25 28 -22 0 -27 -8 -51 -87 -15 -49 -42 -119 -62 -158 -65 -130 -99 -219 -125 -330 -31 -127 -42 -213 -34 -247 8 -31 81 -83 156 -113 33 -12 79 -36 103 -53 68 -47 143 -81 190 -87 74 -11 88 -15 88 -29 0 -35 160 -112 317 -152 117 -29 318 -33 438 -9 76 16 207 65 292 109 l48 25 -40 1 c-50 0 -85 9 -85 22 0 6 49 8 123 6 273 -7 587 86 716 213 30 31 33 37 28 82 -3 38 -16 65 -64 135 -97 141 -141 229 -163 328 -22 103 -58 211 -89 272 -15 30 -33 48 -57 58 -74 31 -103 -1 -193 -214 -47 -110 -91 -196 -123 -240 -27 -37 -59 -83 -72 -102 -33 -49 -63 -73 -81 -67 -22 9 -18 20 14 38 54 31 160 210 238 399 61 150 78 205 118 390 26 118 58 250 71 295 13 44 35 130 49 190 14 61 36 151 50 200 38 137 35 240 -10 380 -82 252 -216 424 -398 510 -97 46 -135 57 -259 75 -42 6 -123 24 -180 41 -57 16 -111 29 -121 29 -10 0 -75 30 -145 66 -70 37 -152 75 -182 85 -72 24 -146 24 -185 1z m524 -2209 c31 -24 37 -60 20 -120 -17 -63 -58 -103 -103 -103 -31 0 -40 6 -66 42 -16 22 -30 52 -30 66 0 25 1 25 14 7 13 -18 14 -18 9 8 -3 15 -9 24 -14 21 -11 -7 -11 3 1 47 6 20 20 41 33 47 31 16 104 8 136 -15z"/>
<path d="M942 3999 c-23 -7 -41 -24 -65 -62 -43 -68 -54 -86 -73 -122 -9 -16 -27 -41 -39 -55 -52 -56 -106 -137 -116 -173 -5 -21 -7 -57 -4 -81 7 -46 43 -117 62 -123 21 -7 73 52 91 104 23 67 45 90 107 118 66 30 109 77 140 153 29 71 32 127 10 179 -30 71 -48 81 -113 62z"/>
<path d="M1097 3923 c18 -87 4 -158 -45 -237 l-24 -39 23 7 c49 14 217 55 299 72 47 9 135 34 195 55 l110 38 -55 0 c-30 1 -92 -3 -137 -9 -98 -11 -108 -7 -256 81 -54 32 -102 59 -106 59 -5 0 -7 -12 -4 -27z"/>
<path d="M3307 3593 c-16 -3 -27 -7 -25 -11 2 -4 19 -39 37 -78 l33 -71 161 -5 c175 -6 226 -17 347 -78 32 -16 60 -26 64 -23 11 11 6 63 -8 92 -25 47 -90 98 -147 114 -187 54 -253 67 -343 66 -50 -1 -104 -4 -119 -6z"/>
<path d="M2455 3530 c-11 -17 5 -30 36 -30 30 0 64 22 52 34 -10 10 -81 7 -88 -4z"/>
<path d="M2343 3500 c-31 -13 -29 -36 3 -44 30 -8 54 8 54 35 0 21 -20 24 -57 9z"/>
<path d="M2083 3468 c-32 -36 -33 -44 -8 -46 15 -1 30 7 40 20 32 46 6 67 -32 26z"/>
<path d="M1970 3411 c-14 -27 -13 -31 8 -31 18 0 52 29 52 43 0 16 -50 5 -60 -12z"/>
<path d="M2236 3394 c-19 -18 -20 -30 -5 -40 13 -8 24 3 34 34 7 26 -7 29 -29 6z"/>
</g>


</svg>