<!DOCTYPE svg PUBLIC "-//W3C//DTD SVG 20010904//EN" "http://www.w3.org/TR/2001/REC-SVG-20010904/DTD/svg10.dtd">
<svg version="1.0" xmlns="http://www.w3.org/2000/svg" width="1005px" height="753px" viewBox="0 0 10050 7530" preserveAspectRatio="xMidYMid meet">
<g id="layer101" fill="#1a1a1a" stroke="none">
 <path d="M1882 5647 l-1882 -1882 1883 -1883 1882 -1882 630 630 630 630 630 -630 630 -630 1883 1883 1882 1882 -1883 1883 -1882 1882 -630 -630 -630 -630 -630 630 -630 630 -1883 -1883z"/>
 </g>
<g id="layer102" fill="#f8ca00" stroke="none">
 <path d="M1882 5648 l-1882 -1883 1883 -1883 1882 -1882 628 628 c345 345 627 632 627 637 0 6 -560 570 -1245 1255 l-1245 1245 622 622 c343 343 627 623 633 623 5 0 569 -559 1252 -1242 l1243 -1243 619 620 619 620 -1876 1883 -1877 1882 -1883 -1882z"/>
 </g>

</svg>